<?xml version="1.0" encoding="UTF-8" standalone="no"?>
<svg width="41px" height="49px" viewBox="0 0 41 49" version="1.1" xmlns="http://www.w3.org/2000/svg" xmlns:xlink="http://www.w3.org/1999/xlink">
    <!-- Generator: Sketch 39.1 (31720) - http://www.bohemiancoding.com/sketch -->
    <title>Page 1 Copy</title>
    <desc>Created with Sketch.</desc>
    <defs>
        <polygon id="path-1" points="20.2004819 48.125 40.0552553 48.125 40.0552553 0.728 20.2004819 0.728 0.345708511 0.728 0.345708511 48.125 20.2004819 48.125"></polygon>
        <polygon id="path-3" points="0 48.125 40.9275957 48.125 40.9275957 0.728 0 0.728"></polygon>
    </defs>
    <g id="main" stroke="none" stroke-width="1" fill="none" fill-rule="evenodd">
        <g id="Page-1-Copy">
            <polygon id="Fill-1" fill="#020302" points="1.21342553 22.486625 3.47278723 22.486625 3.47278723 17.2235 1.21342553 17.2235"></polygon>
            <polygon id="Fill-2" fill="#020302" points="1.21342553 31.9865 3.47278723 31.9865 3.47278723 26.723375 1.21342553 26.723375"></polygon>
            <g id="Group-19" transform="translate(0.000000, 0.147000)">
                <g id="Group-5" transform="translate(0.872340, 0.000000)">
                    <mask id="mask-2" fill="white">
                        <use xlink:href="#path-1"></use>
                    </mask>
                    <g id="Clip-4"></g>
                    <path d="M40.047666,14.43225 L40.047666,4.895625 C40.047666,2.59525 38.1860915,0.728 35.8927085,0.728 L4.50066596,0.728 C2.20728298,0.728 0.345708511,2.59525 0.345708511,4.895625 L0.345708511,12.838 L2.60681489,12.838 L2.60681489,4.895625 C2.60681489,3.845625 3.45385745,2.996 4.50066596,2.996 L35.8927085,2.996 C36.939517,2.996 37.7865596,3.845625 37.7865596,4.895625 L37.7865596,34.388375 L37.7865596,36.880375 L37.7865596,41.64125 L37.7944106,41.633375 L37.7944106,43.957375 C37.7944106,45.007375 36.939517,45.857 35.8927085,45.857 L4.50066596,45.857 C3.45385745,45.857 2.60681489,45.007375 2.60681489,43.957375 L2.60681489,36.0395 L0.345708511,36.0395 L0.345708511,43.957375 C0.345708511,46.249875 2.20728298,48.125 4.50066596,48.125 L35.8927085,48.125 C38.1860915,48.125 40.055517,46.249875 40.055517,43.957375 L40.055517,39.389 L40.055517,35.373625 L40.055517,14.43225 L40.047666,14.43225 Z" id="Fill-3" fill="#020302" mask="url(#mask-2)"></path>
                </g>
                <path d="M11.5814532,13.902875 C11.6399,14.002625 11.6922404,14.1015 11.7419638,14.19775 C11.798666,14.308 11.8597298,14.42 11.9591766,14.599375 L12.3159638,15.257375 C12.3744106,15.357125 12.4276234,15.45075 12.4869426,15.565375 L12.7425383,16.036125 C12.8454745,16.221625 13.0356447,16.42025 13.2231979,16.538375 C13.3828362,16.643375 13.5738787,16.6985 13.7762617,16.6985 C14.1330489,16.6985 14.507283,16.52875 14.7550277,16.253125 C14.8727936,16.120125 14.9896872,15.98275 15.1057085,15.8445 L15.3429851,15.5645 C15.6875596,15.14975 16.0364957,14.735 16.3880489,14.321125 L17.6067085,12.873875 C17.9137723,12.50725 18.2190915,12.138875 18.5383681,11.769625 L18.9082404,11.31725 C19.2493255,10.95325 19.1420277,10.528 18.9858787,10.331125 C18.7110915,9.98375 18.2827723,9.898 17.9573894,10.13775 C17.7070277,10.325875 17.4854532,10.535875 17.2673681,10.74325 C16.9088362,11.076625 16.5450702,11.403875 16.1786872,11.732875 L15.7843894,12.096875 C15.5165809,12.343625 15.2479,12.592125 14.9757298,12.838 L13.8669851,13.850375 L12.5576021,12.46875 C12.3473681,12.298125 12.1589426,12.264875 11.9591766,12.2675 C11.7977936,12.291125 11.6407723,12.357625 11.5055596,12.46525 C11.3380702,12.6105 11.2386234,12.824875 11.2386234,13.055875 C11.2447298,13.18625 11.2691553,13.299125 11.3031766,13.37175 L11.5814532,13.902875 Z" id="Fill-6" fill="#231F20"></path>
                <path d="M11.5814532,24.598875 C11.6399,24.698625 11.6922404,24.7975 11.7419638,24.89375 C11.7951766,24.997 11.8518787,25.101125 11.9068362,25.2 L12.3159638,25.953375 C12.3744106,26.053125 12.4276234,26.14675 12.4851979,26.257 L12.7434106,26.73125 C12.8454745,26.917625 13.036517,27.11625 13.2240702,27.236125 C13.3837085,27.34025 13.5747511,27.39625 13.777134,27.39625 C14.1339213,27.39625 14.5081553,27.2265 14.7559,26.950875 C14.873666,26.817875 14.9905596,26.6805 15.1065809,26.54225 L15.3438574,26.26225 C15.6893043,25.8475 16.0382404,25.43275 16.3889213,25.018 L17.6084532,23.57075 C17.9146447,23.204125 18.2208362,22.83575 18.5392404,22.4665 L18.9091128,22.014125 C19.2501979,21.651 19.1429,21.224875 18.9867511,21.027125 C18.7102191,20.678 18.2836447,20.594875 17.9582617,20.83375 C17.7079,21.021875 17.4863255,21.231875 17.2682404,21.43925 C16.9097085,21.772625 16.5459426,22.099875 16.1795596,22.428 L15.7695596,22.806875 C15.5069851,23.04925 15.242666,23.2925 14.9757298,23.534 L13.8669851,24.546375 L12.5576021,23.165625 C12.3464957,22.99325 12.1528362,22.953 11.9548149,22.9635 C11.7943043,22.988 11.637283,23.0545 11.5038149,23.16125 C11.3363255,23.3065 11.2368787,23.520875 11.2368787,23.751875 C11.2429851,23.88225 11.2674106,23.995125 11.3014319,24.06775 L11.5814532,24.598875 Z" id="Fill-8" fill="#231F20"></path>
                <path d="M17.5866447,34.428625 C17.5866447,35.973875 16.3330915,37.23125 14.7925383,37.23125 C13.2511128,37.23125 11.9975596,35.973875 11.9975596,34.428625 C11.9975596,32.8825 13.2511128,31.625125 14.7925383,31.625125 C16.3322191,31.625125 17.5866447,32.8825 17.5866447,34.428625 M14.7925383,29.946 C12.3281766,29.946 10.322666,31.957625 10.322666,34.428625 C10.322666,36.899625 12.3281766,38.91125 14.7925383,38.91125 C17.2560277,38.91125 19.260666,36.899625 19.260666,34.428625 C19.260666,31.957625 17.2560277,29.946 14.7925383,29.946" id="Fill-10" fill="#231F20"></path>
                <mask id="mask-4" fill="white">
                    <use xlink:href="#path-3"></use>
                </mask>
                <g id="Clip-13"></g>
                <polygon id="Fill-12" fill="#231F20" mask="url(#mask-4)" points="0 15.927625 4.68708511 15.927625 4.68708511 13.81275 0 13.81275"></polygon>
                <polygon id="Fill-14" fill="#231F20" mask="url(#mask-4)" points="0 25.515 4.68708511 25.515 4.68708511 23.400125 0 23.400125"></polygon>
                <polygon id="Fill-15" fill="#231F20" mask="url(#mask-4)" points="0 35.098875 4.68708511 35.098875 4.68708511 32.984 0 32.984"></polygon>
                <polygon id="Fill-16" fill="#231F20" mask="url(#mask-4)" points="21.0312553 14.870625 35.2826809 14.870625 35.2826809 12.453875 21.0312553 12.453875"></polygon>
                <polygon id="Fill-17" fill="#231F20" mask="url(#mask-4)" points="21.0312553 25.253375 35.2826809 25.253375 35.2826809 22.836625 21.0312553 22.836625"></polygon>
                <polygon id="Fill-18" fill="#231F20" mask="url(#mask-4)" points="21.0312553 35.636125 35.2826809 35.636125 35.2826809 33.219375 21.0312553 33.219375"></polygon>
            </g>
        </g>
    </g>
</svg>