<?xml version="1.0" encoding="UTF-8" standalone="no"?>
<svg width="52px" height="48px" viewBox="0 0 52 48" version="1.1" xmlns="http://www.w3.org/2000/svg" xmlns:xlink="http://www.w3.org/1999/xlink">
    <!-- Generator: Sketch 39.1 (31720) - http://www.bohemiancoding.com/sketch -->
    <title>Page 1</title>
    <desc>Created with Sketch.</desc>
    <defs>
        <polygon id="path-1" points="0 47.333475 51.8055652 47.333475 51.8055652 0.000225 0 0.000225"></polygon>
    </defs>
    <g id="main" stroke="none" stroke-width="1" fill="none" fill-rule="evenodd">
        <g id="01flips" transform="translate(-624.000000, -2610.000000)">
            <g id="-" transform="translate(454.000000, 2610.000000)">
                <g id="Page-1" transform="translate(170.000000, 0.000000)">
                    <mask id="mask-2" fill="white">
                        <use xlink:href="#path-1"></use>
                    </mask>
                    <g id="Clip-2"></g>
                    <path d="M14.3753623,45.083475 L46.8384348,45.083475 L46.8384348,31.542225 L14.3753623,31.542225 L14.3753623,45.083475 Z M47.9688696,47.333475 L13.2449275,47.333475 C12.6209275,47.333475 12.1144928,46.829475 12.1144928,46.208475 L12.1144928,30.417225 C12.1144928,29.796225 12.6209275,29.292225 13.2449275,29.292225 L47.9688696,29.292225 C48.5928696,29.292225 49.0993043,29.796225 49.0993043,30.417225 L49.0993043,46.208475 C49.0993043,46.829475 48.5928696,47.333475 47.9688696,47.333475 L47.9688696,47.333475 Z" id="Fill-1" fill="#221F20" mask="url(#mask-2)"></path>
                    <path d="M2.26086957,34.663275 L12.1144928,43.651275 L12.1144928,30.912525 L2.26086957,21.924525 L2.26086957,34.663275 Z M13.2449275,47.333775 C12.9675942,47.333775 12.694029,47.231775 12.4815072,47.037525 L0.36626087,35.987775 C0.133391304,35.774025 0,35.474025 0,35.158275 L0,19.367025 C0,18.921525 0.265275362,18.517275 0.675246377,18.337275 C1.08446377,18.158775 1.56301449,18.236775 1.8946087,18.538275 L14.0091014,29.588025 C14.241971,29.801775 14.3753623,30.101775 14.3753623,30.417525 L14.3753623,46.208775 C14.3753623,46.654275 14.1108406,47.058525 13.7008696,47.238525 C13.553913,47.302275 13.3986667,47.333775 13.2449275,47.333775 L13.2449275,47.333775 Z" id="Fill-3" fill="#221F20" mask="url(#mask-2)"></path>
                    <polygon id="Fill-4" fill="#221F20" mask="url(#mask-2)" points="34.7231884 30.417225 36.984058 30.417225 36.984058 19.367475 34.7231884 19.367475"></polygon>
                    <path d="M18.6461449,6.187725 L49.5446957,6.187725 L49.5446957,2.250225 L18.6461449,2.250225 L18.6461449,6.187725 Z M47.9688696,31.542225 C47.696058,31.542225 47.4224928,31.444725 47.2054493,31.246725 L35.4142609,20.492475 L1.13043478,20.492475 C0.684289855,20.492475 0.280347826,20.231475 0.0987246377,19.826475 C-0.0828985507,19.421475 -0.00979710145,18.948225 0.287884058,18.617475 L16.6708986,0.378225 C16.6746667,0.373725 16.6791884,0.369225 16.6829565,0.363975 L16.6837101,0.363975 C16.6837101,0.363975 16.6837101,0.363225 16.6844638,0.363225 C16.7085797,0.336225 16.7349565,0.310725 16.762087,0.286725 C16.9617971,0.108225 17.2255652,0.000225 17.5157101,0.000225 L50.6751304,0.000225 C51.2991304,0.000225 51.8055652,0.504225 51.8055652,1.125225 L51.8055652,7.312725 C51.8055652,7.933725 51.2991304,8.437725 50.6751304,8.437725 L17.5157101,8.437725 C16.8917101,8.437725 16.3852754,7.933725 16.3852754,7.312725 L16.3852754,4.071225 L3.65733333,18.242475 L35.8536232,18.242475 C36.1362319,18.242475 36.4097971,18.348225 36.6177971,18.537975 L48.7330435,29.588475 C49.1927536,30.007725 49.2244058,30.719475 48.8023768,31.177725 C48.5793043,31.419225 48.2748406,31.542225 47.9688696,31.542225 L47.9688696,31.542225 Z" id="Fill-5" fill="#221F20" mask="url(#mask-2)"></path>
                    <polygon id="Fill-6" fill="#221F20" mask="url(#mask-2)" points="36.7324986 20.07495 34.9750493 18.6597 44.7691362 6.60495 46.5265855 8.0202"></polygon>
                </g>
            </g>
        </g>
    </g>
</svg>