<?xml version="1.0" encoding="utf-8"?>
<!-- Generator: Adobe Illustrator 18.1.1, SVG Export Plug-In . SVG Version: 6.00 Build 0)  -->
<svg version="1.1" id="Layer_1" xmlns="http://www.w3.org/2000/svg" xmlns:xlink="http://www.w3.org/1999/xlink" x="0px" y="0px"
	 viewBox="0 0 33.2 36.3" enable-background="new 0 0 33.2 36.3" xml:space="preserve">
<g>
	<defs>
		<rect id="SVGID_1_" x="0" y="0" width="33.2" height="36.3"/>
	</defs>
	<clipPath id="SVGID_2_">
		<use xlink:href="#SVGID_1_"  overflow="visible"/>
	</clipPath>
	<g clip-path="url(#SVGID_2_)">
		<defs>
			<rect id="SVGID_3_" x="0" width="33.2" height="46"/>
		</defs>
		<clipPath id="SVGID_4_">
			<use xlink:href="#SVGID_3_"  overflow="visible"/>
		</clipPath>
		<path clip-path="url(#SVGID_4_)" fill="none" stroke="#FFFFFF" stroke-width="0.9147" stroke-miterlimit="10" d="M8.1,1.6L8.1,1.6
			c-1.6,2.7-5,3.6-7.7,2 M9.9,0.5L9.9,0.5c0.3,1.1-0.4,2.1-1.4,2.4 M5.1,11.7L5.1,11.7c-0.1,0.7-0.8,1.2-1.6,1.1 M3.4,11.1L3.4,11.1
			c-0.3,0.7-1.1,1-1.8,0.7 M13.3,9.6L13.3,9.6c-3.2,3.2-8.4,3.2-11.6,0"/>
		
			<line clip-path="url(#SVGID_4_)" fill="none" stroke="#FFFFFF" stroke-width="0.9147" stroke-miterlimit="10" stroke-dasharray="3.7475,3.7475" x1="7.6" y1="12.3" x2="7.6" y2="46"/>
		<path clip-path="url(#SVGID_4_)" fill="none" stroke="#FFFFFF" stroke-width="0.9147" stroke-miterlimit="10" d="M25.2,1.6
			L25.2,1.6c1.5,2.6,4.9,3.5,7.6,2 M23.4,0.5L23.4,0.5c-0.2,1,0.4,2.1,1.4,2.3 M28.2,11.5L28.2,11.5c0.1,0.7,0.8,1.2,1.6,1.1
			 M29.9,10.9L29.9,10.9c0.3,0.7,1.1,1,1.8,0.7 M20,9.4L20,9.4c3.2,3.2,8.3,3.2,11.5,0"/>
		
			<line clip-path="url(#SVGID_4_)" fill="none" stroke="#FFFFFF" stroke-width="0.9147" stroke-miterlimit="10" stroke-dasharray="3.7475,3.7475" x1="25.6" y1="12.3" x2="25.6" y2="46"/>
	</g>
</g>
</svg>
