<svg xmlns="http://www.w3.org/2000/svg" viewBox="0 0 822 1127.97"><defs><style>.cls-1{opacity:0.1;}.cls-2{fill:#ad0409;}</style></defs><title>curver01</title><g id="Layer_2" data-name="Layer 2"><g id="Layer_1-2" data-name="Layer 1"><g class="cls-1"><path class="cls-2" d="M276.55,1065c51.17-32.26,92.59-77.15,123.1-133.42,54-99.63,59.85-209.79,59.85-252.53V474h-15V679c0,41.59-5.66,148.76-58,245.38-29.27,54-68.94,97-117.91,127.88-59.22,37.33-132.9,57.37-219,59.56-16,.41-32.51.78-49.55,1.12v15c17.18-.34,33.86-.72,49.93-1.12C138.78,1124.58,215,1103.76,276.55,1065Z"/><polygon class="cls-2" points="444.5 473.5 459.5 473.5 459.5 15 822 15 822 0 444.5 0 444.5 473.5"/><rect class="cls-2" x="444.5" y="473.5" width="15" height="0.48"/></g></g></g></svg>