<?xml version="1.0" encoding="utf-8"?>
<!-- Generator: Adobe Illustrator 18.1.1, SVG Export Plug-In . SVG Version: 6.00 Build 0)  -->
<svg version="1.1" id="Layer_1" xmlns="http://www.w3.org/2000/svg" xmlns:xlink="http://www.w3.org/1999/xlink" x="0px" y="0px"
	 viewBox="0 0 77.1 38.5" enable-background="new 0 0 77.1 38.5" xml:space="preserve">
<g id="Layer_2">
	<g>
		<g id="Layer_1-2_8_">
			<path fill="#B51D22" d="M3.1,2.2h1v1.6h-1V9h-2V3.8H0V2.2h1V0h2V2.2z"/>
			<path fill="#B51D22" d="M5,0h2v2.9h0C7.5,2.3,8.2,2,8.8,2c0.7,0,1.4,0.3,1.9,0.8c0.6,0.7,0.6,1.3,0.6,2.5V9h-2V5.3
				c0-0.3,0-1.4-1.1-1.4s-1.1,1-1.1,1.4V9H5C5,9,5,0,5,0z"/>
			<path fill="#B51D22" d="M19.3,6.9c-0.3,0.7-0.8,1.3-1.4,1.7C17.4,9,16.7,9.2,16,9.2c-2,0-3.6-1.6-3.6-3.6S14,2,16,2
				s3.6,1.6,3.6,3.6c0,0,0,0.1,0,0.1c0,0.2,0,0.4,0,0.5h-5.1c0.1,0.8,0.8,1.3,1.6,1.3c0.5,0,1-0.2,1.2-0.6L19.3,6.9z M17.5,4.9
				c-0.2-0.7-0.8-1.2-1.5-1.1c-0.7,0-1.4,0.5-1.5,1.1H17.5z"/>
			<path fill="#B51D22" d="M2.7,16.2h-2v-1.5h2V16.2z M2.7,23.6h-2v-6.8h2V23.6z"/>
			<path fill="#B51D22" d="M4.2,16.9h1.9v0.7h0c0.4-0.6,1.1-1,1.8-0.9c0.6,0,1.2,0.2,1.7,0.6c0.4,0.3,0.8,0.8,0.8,2.2v4.2h-2V20
				c0-0.5,0-1.4-1.1-1.4c-1.1,0-1.1,1-1.1,1.4v3.7H4.2V16.9z"/>
			<path fill="#B51D22" d="M14.9,18.8c0-0.1,0-0.5-0.6-0.5c-0.4,0-0.6,0.3-0.6,0.5c0,0.4,0.5,0.6,1.1,0.7c1.1,0.3,2.4,0.7,2.4,2.1
				s-1.3,2.3-2.7,2.3c-1,0-2.6-0.5-2.7-2.2h2c0,0.4,0.4,0.7,0.8,0.6c0.3,0,0.7-0.2,0.7-0.5c0-0.5-0.5-0.6-1.8-1.1
				c-0.9-0.3-1.6-0.8-1.6-1.8c0-1.4,1.2-2.2,2.6-2.2c0.9,0,2.4,0.3,2.6,2.1H14.9z"/>
			<path fill="#B51D22" d="M20.3,16.2h-2v-1.5h2V16.2z M20.3,23.6h-2v-6.8h2V23.6z"/>
			<path fill="#B51D22" d="M28.8,22.8c0,1-0.1,1.6-0.4,2.2c-0.5,0.8-1.7,1.6-3.4,1.6c-2.4,0-3.3-1.4-3.4-2.4h2.3
				c0.2,0.4,0.7,0.7,1.2,0.7c0.3,0,1.6,0,1.6-1.8v-0.2h0c-0.4,0.6-1.1,1-1.9,1c-1.9,0-3.4-1.5-3.4-3.3c0-0.1,0-0.1,0-0.2
				c0-2.3,1.6-3.6,3.4-3.6c0.7,0,1.4,0.3,1.9,0.8h0v-0.6h2L28.8,22.8z M25.1,22c0.9,0,1.6-0.7,1.6-1.6c0,0,0-0.1,0-0.1
				c0-0.9-0.6-1.7-1.5-1.7c0,0-0.1,0-0.1,0c-0.9,0.1-1.6,0.9-1.6,1.8C23.6,21.2,24.3,21.9,25.1,22L25.1,22z"/>
			<path fill="#B51D22" d="M30.4,16.9h1.9v0.7h0c0.4-0.6,1.1-1,1.8-0.9c0.6,0,1.2,0.2,1.7,0.6c0.4,0.3,0.8,0.8,0.8,2.2v4.2h-2V20
				c0-0.5,0-1.4-1.1-1.4c-1.1,0-1.1,1-1.1,1.4v3.7h-2V16.9z"/>
			<path fill="#B51D22" d="M40.2,16.2h-2v-1.5h2V16.2z M40.2,23.6h-2v-6.8h2V23.6z"/>
			<path fill="#B51D22" d="M41.9,18.4h-0.8v-1.5h0.8v-0.3c0-1.9,1.6-2.1,2.6-2.1h0.3V16h-0.3c-0.3,0-0.6,0.2-0.6,0.5
				c0,0,0,0.1,0,0.1v0.3h0.8v1.5h-0.8v5.2h-2L41.9,18.4L41.9,18.4z"/>
			<path fill="#B51D22" d="M47.9,16.2h-2v-1.5h2V16.2z M47.9,23.6h-2v-6.8h2V23.6z"/>
			<path fill="#B51D22" d="M56.2,21.1c-0.4,1.9-2.3,3.2-4.3,2.8c-1.7-0.3-3-1.9-2.9-3.7c0-2,1.6-3.6,3.6-3.6c1.7,0,3.2,1.2,3.5,2.8
				h-2c-0.3-0.6-0.8-1-1.5-0.9c-1,0-1.6,0.8-1.6,1.7c-0.1,0.9,0.5,1.6,1.4,1.7c0.1,0,0.1,0,0.2,0c0.6,0,1.2-0.3,1.5-0.9L56.2,21.1z"
				/>
			<path fill="#B51D22" d="M64.4,23.6h-2v-0.7h0c-0.3,0.7-1.2,1-2,1c-2.2,0-3.4-1.7-3.4-3.6c0-2.2,1.6-3.6,3.4-3.6
				c0.8,0,1.5,0.3,2,0.9h0v-0.7h2V23.6z M60.7,22c1,0,1.7-0.7,1.8-1.7c0-1-0.7-1.7-1.7-1.8c-1,0-1.7,0.7-1.8,1.7c0,0,0,0,0,0.1
				C59,21.2,59.8,22,60.7,22z"/>
			<path fill="#B51D22" d="M66,16.9h1.9v0.7h0c0.4-0.6,1.1-1,1.9-0.9c0.6,0,1.2,0.2,1.7,0.6c0.4,0.3,0.8,0.8,0.8,2.2v4.2h-2.1V20
				c0-0.5,0-1.4-1.1-1.4c-1.1,0-1.1,1-1.1,1.4v3.7h-2V16.9z"/>
			<path fill="#B51D22" d="M76.1,16.9h1v1.5h-1v5.2h-2v-5.2h-1v-1.5h1v-2.2h2V16.9z"/>
			<path fill="#B51D22" d="M2.1,31.5l1,4.2h0l1.1-4.2h1.7L7,35.7h0l1-4.2h2.1l-2.1,6.8H6.3l-1.1-4.4h0l-1.1,4.4H2.1L0,31.5H2.1z"/>
			<path fill="#B51D22" d="M14.2,31.3c2-0.1,3.7,1.4,3.8,3.4c0.1,2-1.4,3.7-3.4,3.8c-0.1,0-0.3,0-0.3,0c-2,0.1-3.7-1.4-3.8-3.4
				s1.4-3.7,3.4-3.8C13.9,31.3,14,31.3,14.2,31.3z M14.2,36.6c0.9,0,1.7-0.7,1.8-1.6c0-0.9-0.7-1.7-1.6-1.8c-0.9,0-1.7,0.7-1.8,1.6
				c0,0,0,0,0,0.1C12.5,35.8,13.2,36.6,14.2,36.6L14.2,36.6L14.2,36.6z"/>
			<path fill="#B51D22" d="M19,31.5h1.9v0.7h0c0.2-0.3,0.5-0.9,1.7-0.9v2c-0.9,0-1.6,0.2-1.6,1.2v3.7h-2V31.5z"/>
			<path fill="#B51D22" d="M30.5,38.3h-1.9v-0.7h0c-0.2,0.3-0.6,0.9-2,0.9c-2,0-3.4-1.6-3.4-3.6c0-2.3,1.6-3.6,3.3-3.6
				c0.8,0,1.5,0.3,2,0.8v-2.8h2L30.5,38.3z M26.9,36.6c0.9,0,1.7-0.7,1.7-1.6c0,0,0,0,0-0.1c0-0.9-0.8-1.7-1.7-1.7s-1.7,0.8-1.7,1.7
				C25.2,35.8,25.9,36.6,26.9,36.6z"/>
			<g>
				<g>
					<path fill="#383435" d="M38.1,33.4c0,1.9-1.3,2.4-2,2.4h-1.4v-1.7h0.7c0.4,0,0.8-0.2,0.8-0.6c0,0,0-0.1,0-0.1v-0.7h-1.6v-3.3
						h3.4V33.4z M42.9,33.4c0,1.9-1.3,2.4-2,2.4h-1.4v-1.7h0.7c0.4,0,0.8-0.3,0.8-0.7c0,0,0,0,0-0.1v-0.7h-1.5v-3.3h3.4V33.4z"/>
				</g>
			</g>
		</g>
	</g>
</g>
</svg>
