<?xml version="1.0" encoding="utf-8"?>
<!-- Generator: Adobe Illustrator 18.1.1, SVG Export Plug-In . SVG Version: 6.00 Build 0)  -->
<svg version="1.1" id="Layer_1" xmlns="http://www.w3.org/2000/svg" xmlns:xlink="http://www.w3.org/1999/xlink" x="0px" y="0px"
	 viewBox="0 0 65.5 15.9" enable-background="new 0 0 65.5 15.9" xml:space="preserve">
<g>
	<defs>
		<rect id="SVGID_9_" x="-3.5" y="0" width="69" height="15.9"/>
	</defs>
	<clipPath id="SVGID_2_">
		<use xlink:href="#SVGID_9_"  overflow="visible"/>
	</clipPath>
	<path clip-path="url(#SVGID_2_)" fill="none" stroke="#FFFFFF" stroke-width="0.5111" stroke-miterlimit="10" d="M20.8,8.2
		c-0.6,0.6-1.6,0.6-2.2,0c-0.6-0.6-0.6-1.5,0-2.1c0.6-0.6,1.6-0.6,2.2,0l0,0C21.4,6.7,21.4,7.6,20.8,8.2z M4.6,15.6v-2.2
		c0-2.3,1.9-4.2,4.2-4.2h6.6 M17.6,15.6v-2.1c0-1.2,1-2.1,2.2-2.1c1.2,0,2.2,1,2.2,2.1v2.1 M-3.5,15.6h17.2c0.9,0,1.7-0.7,1.7-1.7
		V7.8c0-0.3-0.3-0.6-0.6-0.6c-0.6,0-0.8-0.7-0.4-1.1l5-4.9c0.2-0.2,0.6-0.2,0.9,0l5,4.9 M65.5,15.6H25.7c-0.9,0-1.7-0.7-1.7-1.7V7.8
		"/>
	<path clip-path="url(#SVGID_2_)" fill="none" stroke="#FFFFFF" stroke-width="0.5111" stroke-miterlimit="10" d="M8.3,6.4
		c0-3.4,2.7-6.1,6.1-6.1l0,0 M9.8,6.4c0-2.5,2.1-4.6,4.6-4.6l0,0 M11.4,6.4c0-1.7,1.4-3.1,3.1-3.1l0,0"/>
</g>
</svg>
