<svg id="Layer_1" data-name="Layer 1" xmlns="http://www.w3.org/2000/svg" xmlns:xlink="http://www.w3.org/1999/xlink" viewBox="0 0 250 330"><defs><style>.cls-1,.cls-2,.cls-7{fill:none;}.cls-1,.cls-2,.cls-3,.cls-4,.cls-5,.cls-6,.cls-7{stroke:#000;stroke-width:3px;}.cls-1,.cls-2,.cls-3,.cls-4,.cls-5,.cls-6{stroke-linecap:round;}.cls-1{stroke-miterlimit:10;}.cls-2,.cls-3,.cls-4,.cls-5,.cls-6,.cls-7{stroke-linejoin:round;}.cls-3{fill:#fff;}.cls-4{fill:url(#New_Gradient_Swatch_1);}.cls-5{fill:url(#New_Gradient_Swatch_1-2);}.cls-6{fill:url(#New_Gradient_Swatch_1-3);}.cls-8{fill:url(#linear-gradient);}</style><linearGradient id="New_Gradient_Swatch_1" x1="66.5" y1="227.58" x2="140.23" y2="227.58" gradientUnits="userSpaceOnUse"><stop offset="0" stop-color="#ef6f70"/><stop offset="1" stop-color="#ffc411"/></linearGradient><linearGradient id="New_Gradient_Swatch_1-2" x1="78.5" y1="207" x2="83.5" y2="207" xlink:href="#New_Gradient_Swatch_1"/><linearGradient id="New_Gradient_Swatch_1-3" x1="128.14" y1="252.82" x2="185.5" y2="252.82" xlink:href="#New_Gradient_Swatch_1"/><linearGradient id="linear-gradient" x1="21.87" y1="343.88" x2="228.13" y2="-13.38" gradientUnits="userSpaceOnUse"><stop offset="0" stop-color="#ffc411"/><stop offset="1" stop-color="#ef6f70"/></linearGradient></defs><title>illus</title><line class="cls-1" x1="112.56" y1="325.97" x2="112.56" y2="315.2"/><line class="cls-1" x1="123.88" y1="315.2" x2="123.88" y2="325.97"/><line class="cls-1" x1="91.56" y1="325.97" x2="91.56" y2="315.2"/><line class="cls-1" x1="102.88" y1="315.2" x2="102.88" y2="325.97"/><path class="cls-2" d="M73.94,267.33l3,42.32a3.85,3.85,0,0,0,3.85,3.85h52.87a3.85,3.85,0,0,0,3.85-3.85l4-44.15h-68Z"/><line class="cls-3" x1="82.96" y1="295.84" x2="83.96" y2="305.84"/><line class="cls-1" x1="175.31" y1="302.31" x2="185.92" y2="325.67"/><line class="cls-1" x1="178.76" y1="328.92" x2="167.16" y2="305.56"/><line class="cls-1" x1="146.56" y1="328" x2="146.56" y2="306.2"/><line class="cls-1" x1="155.42" y1="306.2" x2="154.42" y2="328"/><path class="cls-2" d="M53.58,121A10.42,10.42,0,0,1,52,131.17L50.55,133a10.43,10.43,0,0,0,0,13h0a10.43,10.43,0,0,1,0,13h0a10.43,10.43,0,0,0,0,13l1,1.23a10.42,10.42,0,0,1,1.13,11.2l-2.1,4.15H169.34l.06-4.15a10.42,10.42,0,0,0-1.13-11.2l-1-1.23a10.43,10.43,0,0,1,0-13h0a10.43,10.43,0,0,0,0-13,16,16,0,0,1,1.21-13.47"/><path class="cls-2" d="M55.72,163.12a10.43,10.43,0,0,0,2,8.8l1,1.23a10.42,10.42,0,0,1,1.13,11.2l-2.1,4.15"/><circle class="cls-3" cx="110.08" cy="127.42" r="58.92"/><path class="cls-2" d="M125,160.09a15.91,15.91,0,0,1-29.43.29"/><circle cx="133.48" cy="144.4" r="3.67"/><circle cx="86.99" cy="144.4" r="3.67"/><path class="cls-3" d="M87.15,130.36a8.78,8.78,0,0,0-9.85,4.48"/><path class="cls-3" d="M130.31,128.44A8.78,8.78,0,0,1,141,130.08"/><path class="cls-2" d="M96.5,71.5c1,18,6,16,22,22s8.64,14.46,15,19c7,5,13-2,19,4,4,4-.66,12.17,5,15,8,4,13-7,10.87,4.54"/><path class="cls-3" d="M99.47,84.47c-5,14-19,3-25,15-3.58,7.16,2,13-8,17-7.66,3.06-9.67,5.46-13.84,24.23"/><path class="cls-2" d="M126.5,89.68c14.35,5.38,7.75,13,13.46,17,6.14,4.39,11.61-1.84,17,3.59"/><path class="cls-3" d="M85.08,199.44c-3.69,4.49-6.82,11.27-8.31,18.2-1.26,5.85.2,8.63,1.61,10.56,5.49,7.52,18.12,12.29,34.71,11.25,2.41-.15,8.57.29,10.41,3,2,3-.66,5.89-3.64,7.35-3.36,1.65-9,1.51-13.36,1.65-16.87.57-28-4-37-13-10.87-10.87-2.54-36.3,5-47,1.66-2.36,12.83-8.95,19-8"/><path class="cls-4" d="M66.5,202.5l12.21,9-10.21,54s33.47,13.59,71.73,2.29L129.81,183a280.67,280.67,0,0,1-39.15,0C72.5,181.5,66.5,202.5,66.5,202.5Z"/><line class="cls-5" x1="78.5" y1="211.5" x2="83.5" y2="202.5"/><path class="cls-3" d="M140.5,272.5l-7,29s39,11,74-2l-24-26"/><path class="cls-3" d="M136.2,237.23c-6.43-.8-17.91-5.41-27.6-11.93C98.5,218.5,99.22,209,93,212.75c-4.53,2.75,5.12,25.19,39.89,32.41"/><path class="cls-6" d="M185.5,272.5a331.4,331.4,0,0,1-17-44c-10.07,7.24-22,8.71-35.94,4l-4.42,13.69,8.36,2.26,3,23S142.5,283.5,185.5,272.5Z"/><circle class="cls-3" cx="148.33" cy="199.42" r="35.17"/><line class="cls-2" x1="128.5" y1="246.5" x2="144.5" y2="250.5"/><path class="cls-3" d="M155.08,205.91a6,6,0,0,1-10.11.23"/><path class="cls-3" d="M131.2,207.61a6,6,0,0,1-10.11.23"/><path class="cls-7" d="M173.79,175.17a15.19,15.19,0,0,1,13.71-5.67c7,1,12,5,12,17,0,10-8.57,15.72-3,25,3,5,6,6,6,6s-17,8-20.49-7.92c0,0-2.51,1.92-25.51-8.08a44,44,0,0,1-26-32"/><path class="cls-7" d="M181.66,207.51a86.22,86.22,0,0,1-8.75-4.32c-15.61-9.25-20.41-25.69-20.41-25.69"/><line class="cls-3" x1="144.51" y1="303.44" x2="147.5" y2="288.5"/><line class="cls-3" x1="160.62" y1="304.68" x2="159.98" y2="288.47"/><line class="cls-3" x1="177.5" y1="304.5" x2="171.5" y2="287.5"/><line class="cls-3" x1="195.21" y1="301.35" x2="182.5" y2="285.5"/><path class="cls-3" d="M76.76,217.65c-1.26,5.85.2,8.63,1.61,10.56,5.49,7.52,18.12,12.29,34.71,11.25,2.41-.15,8.57.29,10.41,3,2,3-.66,5.89-3.64,7.35-3.36,1.65-9,1.51-13.36,1.65-16.87.57-28-4-37-13"/><path class="cls-8" d="M245.45,4.5V326H4.55V4.5H245.45m5-5H-.45V331H250.45V-.5Z"/></svg>