<svg id="Layer_1" data-name="Layer 1" xmlns="http://www.w3.org/2000/svg" xmlns:xlink="http://www.w3.org/1999/xlink" viewBox="0 0 250 330"><defs><style>.cls-1,.cls-7{fill:none;}.cls-1,.cls-2,.cls-3,.cls-4,.cls-5,.cls-6,.cls-7{stroke:#000;stroke-miterlimit:10;stroke-width:3px;}.cls-1,.cls-2,.cls-3,.cls-4,.cls-5,.cls-6{stroke-linecap:round;}.cls-2{fill:url(#New_Gradient_Swatch_1);}.cls-3{fill:url(#New_Gradient_Swatch_1-2);}.cls-4{fill:url(#New_Gradient_Swatch_1-3);}.cls-5{fill:#fffdff;}.cls-6{fill:#fff;}.cls-8{fill:url(#New_Gradient_Swatch_1-4);}</style><linearGradient id="New_Gradient_Swatch_1" x1="98.65" y1="144.1" x2="160.46" y2="144.1" gradientUnits="userSpaceOnUse"><stop offset="0" stop-color="#ef6f70"/><stop offset="1" stop-color="#ffc411"/></linearGradient><linearGradient id="New_Gradient_Swatch_1-2" x1="146.15" y1="153.04" x2="153.21" y2="153.04" xlink:href="#New_Gradient_Swatch_1"/><linearGradient id="New_Gradient_Swatch_1-3" x1="106.18" y1="152.21" x2="114.29" y2="152.21" xlink:href="#New_Gradient_Swatch_1"/><linearGradient id="New_Gradient_Swatch_1-4" x1="-0.45" y1="165.25" x2="250.45" y2="165.25" xlink:href="#New_Gradient_Swatch_1"/></defs><title>illus</title><path class="cls-1" d="M102.85,119.36H149a21.55,21.55,0,0,1,21.55,21.55v22.22a0,0,0,0,1,0,0H81.3a0,0,0,0,1,0,0V140.91A21.55,21.55,0,0,1,102.85,119.36Z"/><path class="cls-2" d="M98.65,164.38c0-22.39,13.84-40.55,30.91-40.55s30.91,18.15,30.91,40.55"/><path class="cls-3" d="M146.15,143.32a29.13,29.13,0,0,1,7,19.44"/><path class="cls-4" d="M114.29,141.67a31.82,31.82,0,0,0-8.11,21.09"/><path class="cls-1" d="M183.11,302.82l-9.62-127.47H78.17L68.54,302.82a6.92,6.92,0,0,0,6.8,8.18h.57a6.92,6.92,0,0,0,6.72-5.29l6-59.15H163l6,59.15a6.92,6.92,0,0,0,6.72,5.29h.57A6.92,6.92,0,0,0,183.11,302.82ZM89.61,237.19l3.2-31.49a15.51,15.51,0,0,1,15.07-11.86h35.9a15.51,15.51,0,0,1,15.07,11.86l3.2,31.49Z"/><path class="cls-5" d="M160.51,184.86H91.15c-8.05,0-14.33-6.62-13.5-14.22l2.63-6.86h91.1l2.63,6.86C174.84,178.25,168.56,184.86,160.51,184.86Z"/><path class="cls-6" d="M104.64,170.69H91.91a4.15,4.15,0,0,1-4.15-4.15V140a4.15,4.15,0,0,1,4.15-4.15h12.74A4.15,4.15,0,0,1,108.8,140v26.54A4.15,4.15,0,0,1,104.64,170.69Z"/><path class="cls-6" d="M106.43,135.79H90.12a.87.87,0,0,1-.76-1v-2.36a1.46,1.46,0,0,1,1.27-1.6h15.29a1.46,1.46,0,0,1,1.27,1.6v2.36A.87.87,0,0,1,106.43,135.79Z"/><path class="cls-1" d="M101.1,126.32c-.92-1-.12-2.73,0-4.09q0-.23,0-.46a2.87,2.87,0,1,0-5.67,0q0,.23,0,.46c.11,1.35.91,3.12,0,4.09-1.08,1.13-3.34,2.75-3.34,4.56h12.35a4,4,0,0,0-1.27-2.53C102.48,127.57,101.64,126.88,101.1,126.32Z"/><circle class="cls-6" cx="129.88" cy="99.5" r="33.52"/><path class="cls-1" d="M160.68,82.77s8.16-11.12,19.51.22c13.59,13.59-1.51,33.22,1.51,42.27a14.92,14.92,0,0,1-12.08-12.08c-1.51-7.55,7.55-22.65-6-25.67"/><path class="cls-7" d="M141.26,105.88a11.38,11.38,0,1,1-22.76,0"/><circle cx="146.51" cy="98.88" r="2.63"/><circle cx="113.25" cy="98.88" r="2.63"/><path class="cls-1" d="M122,66.91S116.32,70,116.32,80.5"/><path class="cls-1" d="M130.79,66.91S128.57,70,128.57,80.5"/><path class="cls-1" d="M137.32,66.91S143,70,143,80.5"/><path class="cls-1" d="M175.67,122.25s-1.51-7.55,1.51-12.08"/><line class="cls-6" x1="93.56" y1="205.96" x2="158.33" y2="205.96"/><rect class="cls-6" x="111.06" y="191.95" width="15.76" height="22.76" rx="7.88" ry="7.88"/><rect class="cls-6" x="134.23" y="193.04" width="15.76" height="22.85" rx="7.88" ry="7.88" transform="translate(100.34 -41.01) rotate(25.14)"/><path class="cls-8" d="M245.45,4.5V326H4.55V4.5H245.45m5-5H-.45V331H250.45V-.5Z"/></svg>