<svg id="Layer_1" data-name="Layer 1" xmlns="http://www.w3.org/2000/svg" xmlns:xlink="http://www.w3.org/1999/xlink" viewBox="0 0 250 330"><defs><style>.cls-1,.cls-5,.cls-6{fill:none;}.cls-1,.cls-2,.cls-3,.cls-4,.cls-5,.cls-6{stroke:#000;stroke-width:3px;}.cls-1,.cls-2,.cls-3,.cls-4,.cls-6{stroke-linecap:round;}.cls-1,.cls-3,.cls-4,.cls-5{stroke-miterlimit:10;}.cls-2,.cls-3{fill:#fff;}.cls-2,.cls-6{stroke-linejoin:round;}.cls-4{fill:url(#New_Gradient_Swatch_1);}.cls-7{fill:url(#New_Gradient_Swatch_1-2);}</style><linearGradient id="New_Gradient_Swatch_1" x1="100.74" y1="209.88" x2="157.73" y2="209.88" gradientUnits="userSpaceOnUse"><stop offset="0" stop-color="#ef6f70"/><stop offset="1" stop-color="#ffc411"/></linearGradient><linearGradient id="New_Gradient_Swatch_1-2" x1="-20.6" y1="310.85" x2="270.6" y2="19.65" xlink:href="#New_Gradient_Swatch_1"/></defs><title>illus</title><path class="cls-1" d="M117.13,247.39h.68a4.29,4.29,0,0,1,4.29,4.29V313.3a4.62,4.62,0,0,1-4.62,4.62h0a4.62,4.62,0,0,1-4.62-4.62V251.68a4.29,4.29,0,0,1,4.29-4.29Z" transform="translate(18.12 -6.87) rotate(3.63)"/><path class="cls-1" d="M141.88,247.39h0A4.62,4.62,0,0,1,146.5,252v61.62a4.29,4.29,0,0,1-4.29,4.29h-.68a4.29,4.29,0,0,1-4.29-4.29V252a4.62,4.62,0,0,1,4.62-4.62Z" transform="translate(301.36 555.77) rotate(176.37)"/><path class="cls-2" d="M104,234.75l-7.8,24.08s26.63,10.24,63.51-1c0,0-8.19-15.37-9.22-22.54"/><line class="cls-3" x1="107.65" y1="260.46" x2="112.64" y2="236.29"/><line class="cls-3" x1="122.03" y1="260.98" x2="122.88" y2="236.29"/><line class="cls-3" x1="135.18" y1="260.88" x2="132.1" y2="236.29"/><line class="cls-3" x1="149.79" y1="259.48" x2="140.3" y2="236.29"/><path class="cls-1" d="M101.08,194.93a108.49,108.49,0,0,0-15,37.51,4.34,4.34,0,0,0,2.58,4.94,4.19,4.19,0,0,0,5.59-3.1,100.25,100.25,0,0,1,15.48-37.44q-.62-.87-1.15-1.74A4.44,4.44,0,0,0,101.08,194.93Z"/><path class="cls-1" d="M146.34,198.47q-.28.47-.58.93a100.12,100.12,0,0,1,17,36.47,4.37,4.37,0,0,0,4.69,3.42,4.19,4.19,0,0,0,3.51-5.14,108.91,108.91,0,0,0-15.93-36A5.21,5.21,0,0,0,146.34,198.47Z"/><path class="cls-4" d="M147.82,206.08l9.91-8.32A45.11,45.11,0,0,0,144.48,185l-33.22.24a43.46,43.46,0,0,0-10.52,9.43l9.31,7.78c-3.31,6.14-9.31,23.94-9.31,32.3h54.65c0-8.37-6-26.17-9.32-32.31"/><path class="cls-3" d="M126.32,188.25a3.44,3.44,0,0,1,.73,2.09c0,2.23-2.26,4-5,4-5,0-7.07-3.83-7.07-6.06"/><path class="cls-3" d="M141.19,188.32c0,2.23-2,6.06-7.07,6.06-2.79,0-5-1.81-5-4a3.43,3.43,0,0,1,.69-2"/><circle class="cls-3" cx="128.57" cy="149.67" r="38.65"/><path class="cls-1" d="M163.72,132.71s9.5-12.95,22.7.26c15.81,15.81,0,38.65-3.51,49.19,0,0-7-3.15-8.78-15.81-1.76-12.3,8.78-24.6-7-28.11"/><path class="cls-5" d="M141.69,157a13.12,13.12,0,1,1-26.24,0"/><circle cx="147.75" cy="148.96" r="3.03"/><circle cx="109.39" cy="148.96" r="3.03"/><path class="cls-6" d="M165.72,139s-24.53-3.17-36.65-27.4c0,0-5.59,19-37.11,25.63"/><path class="cls-1" d="M93,131.17s-9.17-11.41-22.37,1.8c-15.81,15.81,0,38.65,3.51,49.19,0,0,7-3.15,8.78-15.81,1.76-12.3-8.78-24.6,7-28.11"/><path class="cls-1" d="M107.41,230.2s1.11-7.76,3.33-12.2"/><path class="cls-7" d="M245.45,4.5V326H4.55V4.5H245.45m5-5H-.45V331H250.45V-.5Z"/></svg>