<svg id="Layer_1" data-name="Layer 1" xmlns="http://www.w3.org/2000/svg" xmlns:xlink="http://www.w3.org/1999/xlink" viewBox="0 0 250 330"><defs><style>.cls-1,.cls-5{fill:none;}.cls-1,.cls-2,.cls-3,.cls-4,.cls-5{stroke:#000;stroke-width:3px;}.cls-1,.cls-2,.cls-3,.cls-4{stroke-linecap:round;}.cls-1,.cls-3,.cls-4,.cls-5{stroke-linejoin:round;}.cls-2,.cls-3{fill:#fff;}.cls-2{stroke-miterlimit:10;}.cls-4{fill:url(#New_Gradient_Swatch_1);}.cls-6{fill:url(#New_Gradient_Swatch_1-2);}</style><linearGradient id="New_Gradient_Swatch_1" x1="97.93" y1="178.55" x2="155.93" y2="178.55" gradientUnits="userSpaceOnUse"><stop offset="0" stop-color="#ef6f70"/><stop offset="1" stop-color="#ffc411"/></linearGradient><linearGradient id="New_Gradient_Swatch_1-2" x1="250.45" y1="165.25" x2="-0.45" y2="165.25" xlink:href="#New_Gradient_Swatch_1"/></defs><title>illus</title><path class="cls-1" d="M80.75,100.85s1.07,90.22,28.37,88.87h38.63s10.33-10.46,11.4-22.27l2.15,14s18.36-25.47,14-80.56Z"/><path class="cls-1" d="M145.1,317.86h0a5.76,5.76,0,0,0,5.57-5.92l.39-24.14a5.34,5.34,0,0,0-5.48-5.16l-.84,0a5.34,5.34,0,0,0-5.16,5.48l-.39,24.14A5.76,5.76,0,0,0,145.1,317.86Z"/><path class="cls-1" d="M111.7,317.84h0a5.76,5.76,0,0,1-6.19-5.26l-3.07-23.95a5.34,5.34,0,0,1,4.88-5.74l.84-.07a5.34,5.34,0,0,1,5.74,4.88L117,311.65A5.76,5.76,0,0,1,111.7,317.84Z"/><path class="cls-2" d="M80.1,96.16S79.21,45,130.16,45c33,0,50.48,33.3,46,55.31"/><path class="cls-3" d="M113,148.11c-.78-.41-11.57-.71-16.11,6.44C88.43,167.83,95.2,203,100,220.25a5.39,5.39,0,0,0,5.63,4,5.2,5.2,0,0,0,4.46-6.57c-3.86-13.83-5.22-32.22-4.61-49.19"/><path class="cls-3" d="M150.56,168.52a186.4,186.4,0,0,1,4.91,49.54,5.43,5.43,0,0,0,4.39,5.71,5.2,5.2,0,0,0,6-4.9c.8-17.37-1.83-44.37-6.69-58.94-3.22-9.67-15.76-12.11-16.11-11.81"/><path class="cls-3" d="M103.13,208.53c-1.5,8.6-4.27,34.67,1,98.55h14s5.63-79.48,9.67-79.48c6.7,0,11.81,79.48,11.81,79.48h12.89s7.27-80.95.37-99.48a5.56,5.56,0,0,0-5.21-3.63h-39A5.53,5.53,0,0,0,103.13,208.53Z"/><path class="cls-4" d="M150.9,168.66s4.55,34.64,5,38.53l-6.16,2.22a13.78,13.78,0,0,1-10.65-.54l-.69-.33a13.78,13.78,0,0,0-11.49-.21h0a13.78,13.78,0,0,1-11.52-.22l-.73-.35a13.78,13.78,0,0,0-10.57-.59l-6.19,2.18c6.17-32.94,7.75-40.67,7.75-40.67a157.15,157.15,0,0,0-.24-20.55L111.9,147c4.19.86,1.49,12.89,16.11,12.89,13.72,0,13.18-14.74,15-12.89l5.37,2.15S147.34,162.07,150.9,168.66Z"/><circle class="cls-3" cx="128.1" cy="100.81" r="48"/><path class="cls-5" d="M143.24,116a16.3,16.3,0,0,1-30.15.3"/><circle cx="151.92" cy="99.92" r="3.76"/><circle cx="104.29" cy="99.92" r="3.76"/><path class="cls-1" d="M175.73,100.26s-18-14.31-33.06-44.4c0,0-23.2,32.34-62.34,40.62"/><path class="cls-6" d="M245.45,4.5V326H4.55V4.5H245.45m5-5H-.45V331H250.45V-.5Z"/></svg>