<svg id="Layer_1" data-name="Layer 1" xmlns="http://www.w3.org/2000/svg" xmlns:xlink="http://www.w3.org/1999/xlink" viewBox="0 0 250 330"><defs><style>.cls-1,.cls-3,.cls-5,.cls-8{fill:none;}.cls-2{clip-path:url(#clip-path);}.cls-10,.cls-3,.cls-4,.cls-5,.cls-6,.cls-7,.cls-8,.cls-9{stroke:#000;stroke-width:3px;}.cls-3,.cls-4,.cls-5,.cls-9{stroke-miterlimit:10;}.cls-4,.cls-9{fill:#fff;}.cls-10,.cls-4,.cls-5,.cls-6,.cls-7{stroke-linecap:round;}.cls-10,.cls-6,.cls-7,.cls-8{stroke-linejoin:round;}.cls-6{fill:url(#New_Gradient_Swatch_1);}.cls-7{fill:url(#New_Gradient_Swatch_1-2);}.cls-10{fill:url(#New_Gradient_Swatch_1-3);}.cls-11{fill:url(#New_Gradient_Swatch_1-4);}</style><clipPath id="clip-path"><rect class="cls-1" x="-0.5" y="-0.5" width="251" height="331"/></clipPath><linearGradient id="New_Gradient_Swatch_1" x1="103.24" y1="165.12" x2="212.26" y2="165.12" gradientUnits="userSpaceOnUse"><stop offset="0" stop-color="#ef6f70"/><stop offset="1" stop-color="#ffc411"/></linearGradient><linearGradient id="New_Gradient_Swatch_1-2" x1="48.96" y1="166.05" x2="99.37" y2="166.05" xlink:href="#New_Gradient_Swatch_1"/><linearGradient id="New_Gradient_Swatch_1-3" x1="128.74" y1="190.4" x2="194.17" y2="190.4" xlink:href="#New_Gradient_Swatch_1"/><linearGradient id="New_Gradient_Swatch_1-4" x1="125" y1="331" x2="125" y2="-0.5" xlink:href="#New_Gradient_Swatch_1"/></defs><title>illus</title><g class="cls-2"><line class="cls-3" x1="113.85" y1="97.98" x2="96.76" y2="85.08"/><path class="cls-4" d="M151.32,222s-14.92,64.37,2.34,86.47c6.19,7.92,99,0,99,0V288.61s-47.62-4.67-59.31-10.52c-5.63-2.81-4.12-14.1-.73-25.71,9.45-9.82,14.38-29.21,14.38-29.21"/><path class="cls-5" d="M184,253.43s-5.84,30.51,4.67,32.84,64,9.35,64,9.35"/><path class="cls-5" d="M74.61,302.79a6.77,6.77,0,0,0,6.63,6.91H91.85c5.59-.5,5.59-7.5,2.21-9.57-4.87-3-8-.73-8-5.38v-6.55"/><path class="cls-4" d="M67.15,289.61v15.26a6.77,6.77,0,0,0,6.63,6.91H84.39c5.59-.5,5.59-7.5,2.21-9.57-4.87-3-8-.73-8-5.38v-6.55"/><path class="cls-6" d="M156.43,126.28c-30.28-20.71-36.93-28-37.34-28.45-3.91-4.2-19.13,10-15.22,14.15,1.39,1.5,13.08,11.42,44,33.19a20.12,20.12,0,0,1,8.57,16.58,206.34,206.34,0,0,1-12.08,66.5,2.41,2.41,0,0,0,1.87,3.23c6.44,1,24.26,2.92,59.5.56,3.69-.25,6.55-4.51,6.49-8.21l-.06-9.39c-.87-43.22-17.65-64.87-17.65-64.87"/><polyline class="cls-5" points="96.24 202.01 88.46 286.09 70.85 286.09"/><path class="cls-4" d="M84.77,218.93l-4.89,69.25H64.09l-6.35-67.46s-6.42-5.93-6.42-19.28"/><path class="cls-7" d="M85.94,133.45s13.44,16.72,13.44,66.88H49.31S45.93,161,60.14,131.78"/><path class="cls-4" d="M53.14,171.27s39.2,12.6,37.86-6.57c-.73-10.46-13.34-28.17-13.34-28.17h-8.4S81.87,154.24,82.6,164.7c.53,7.58-5.28,10.19-12.5,10.58"/><ellipse class="cls-4" cx="74.61" cy="102.58" rx="30.03" ry="31.58"/><circle cx="93.64" cy="103.27" r="2.43"/><path class="cls-8" d="M84,114.64a15.08,15.08,0,0,0,15.26,6.69"/><path class="cls-8" d="M93.35,77.69S73,113.92,45.6,109"/><path class="cls-8" d="M54.55,78.88a15.6,15.6,0,0,0-14.08-5.82c-7.19,1-12.32,5.14-12.32,17.46,0,10.27,9.24,16.43,3.08,25.68-3.32,5-6.16,6.16-6.16,6.16s17.46,7.19,21-9.16"/><path class="cls-4" d="M60.54,131.82c-6.91-.42-28.83,6.64-34.34,37.78a2.35,2.35,0,0,0,1.73,2.7l19.22,4.8a2.61,2.61,0,0,0,3.14-1.79l15.46-40.45C66.08,133.72,61.73,131.89,60.54,131.82Z"/><line class="cls-4" x1="30.21" y1="160.17" x2="52.45" y2="166.1"/><path class="cls-9" d="M85.53,177.67a4.24,4.24,0,0,1-.54.13c-18.05,3.12-28.74,2.57-31.78-1.63-1.13-1.56-5.47-6.62,9.72-35.71.92-1.77,3.87-2.43,5.78-1.87,2.59.76,5.2,3.8,4,6.07-4.41,8.43-9,18.41-10.52,24a2.25,2.25,0,0,0,2.08,2.85c4.6.22,11.27-.43,19.05-1.77a4.28,4.28,0,0,1,4.9,2.9A4.14,4.14,0,0,1,85.53,177.67Zm-26.08-6.8"/><path class="cls-9" d="M74.11,150.88A3.15,3.15,0,0,1,70,153l-9.87-3.67a3.15,3.15,0,0,1-1.56-4.63s6.35-14.36,13.09-12.47C79.83,134.56,74.11,150.88,74.11,150.88Z"/><ellipse class="cls-4" cx="184.5" cy="116.75" rx="34.82" ry="36.61"/><circle cx="167.21" cy="106.44" r="2.51"/><path class="cls-9" d="M149.83,113.49a13.12,13.12,0,0,0,12.54,8.07"/><path class="cls-4" d="M177.53,199.46c-13.37,17.15-32.26,26.2-56.45,27.59h-.3a5.11,5.11,0,0,1-.29-10.22c23.77-1.37,39.58-11.19,51-29.26"/><path class="cls-10" d="M189.88,182.28c-15.25,42.24-49.17,43.28-55.09,44.27a1.87,1.87,0,0,1-1.72-.64c-4.59-5.29-4.52-9.21-4.2-12.6a2.5,2.5,0,0,1,2.54-2.21c20.19.59,34.64-19.65,41.76-32.51A55.41,55.41,0,0,0,178.79,163c.83-4,2.82-8.75,7.59-8.75C201.56,154.23,189.88,182.28,189.88,182.28Z"/><path class="cls-4" d="M165.76,86.9c.52,2.36,3,11.1,11.75,8.6,0,0,3.74,8.74,10,6.24,0,0,3.74,13.73,12.48,10,0,0,1.25,8.74,6.24,10s8.74,8.74,8.74,8.74"/><path class="cls-11" d="M245.45,4.5V326H4.55V4.5H245.45m5-5H-.45V331H250.45V-.5Z"/></g></svg>