<svg id="Layer_1" data-name="Layer 1" xmlns="http://www.w3.org/2000/svg" xmlns:xlink="http://www.w3.org/1999/xlink" viewBox="0 0 250 330"><defs><style>.cls-1,.cls-4,.cls-5{fill:none;}.cls-1,.cls-2,.cls-3,.cls-4,.cls-5,.cls-6{stroke:#000;stroke-width:3px;}.cls-1,.cls-2,.cls-3,.cls-5,.cls-6{stroke-linecap:round;}.cls-1,.cls-2,.cls-4{stroke-miterlimit:10;}.cls-2,.cls-6{fill:#fff;}.cls-3,.cls-5,.cls-6{stroke-linejoin:round;}.cls-3{fill:url(#New_Gradient_Swatch_1);}.cls-7{fill:url(#New_Gradient_Swatch_1-2);}</style><linearGradient id="New_Gradient_Swatch_1" x1="92.21" y1="204.17" x2="161.91" y2="204.17" gradientUnits="userSpaceOnUse"><stop offset="0" stop-color="#ef6f70"/><stop offset="1" stop-color="#ffc411"/></linearGradient><linearGradient id="New_Gradient_Swatch_1-2" x1="125" y1="331" x2="125" y2="-0.5" xlink:href="#New_Gradient_Swatch_1"/></defs><title>illus</title><path class="cls-1" d="M114.8,230h.83a5.25,5.25,0,0,1,5.25,5.25V312a5.66,5.66,0,0,1-5.66,5.66h0a5.66,5.66,0,0,1-5.66-5.66V235.2A5.25,5.25,0,0,1,114.8,230Z"/><path class="cls-1" d="M149.38,317.8l.82-.13c2.85-.45,4-2.75,4.37-6,.85-4.92-3-52.82-11.73-76.27a5.26,5.26,0,0,0-6-4.37l-.82.13a5.26,5.26,0,0,0-4.37,6c8.59,24.25,10.5,49.34,11.78,75.26a5.94,5.94,0,0,0,.83,3.2A5.26,5.26,0,0,0,149.38,317.8Z"/><path class="cls-2" d="M85.51,111.33s-.28-43.8,44.76-43.8c29.21,0,46.25,31.65,40.17,47.47"/><path class="cls-1" d="M85.23,111.35c-7.14,23.13-4.87,70.6-4.87,70.6H175.3s4.07-65.44-10.14-86.88"/><path class="cls-2" d="M95.85,177.48a132.77,132.77,0,0,0,4.37,49.23,5.31,5.31,0,0,0,5.54,4,5.13,5.13,0,0,0,4.39-6.48,122.68,122.68,0,0,1-3.77-49.44q-1.15-.6-2.22-1.27A5.43,5.43,0,0,0,95.85,177.48Z"/><path class="cls-2" d="M148.47,175q-.49.45-1,.9a122.53,122.53,0,0,1,7.45,48.7,5.35,5.35,0,0,0,4.33,5.63,5.13,5.13,0,0,0,5.89-4.83,133.28,133.28,0,0,0-6.3-47.75A6.38,6.38,0,0,0,148.47,175Z"/><path class="cls-3" d="M147.8,176.93l2.71,9.33s11.74-5.75,11.4-7.19c-.47-2-6.95-24.42-34.27-24.42h0c-31,0-34.95,23.69-35.42,25.62-.38,1.56,12.95,4.8,12.95,4.8l2.32-8.14s1.22,12.06,1.27,12.31a14.7,14.7,0,0,1-2.18,11.5,24.91,24.91,0,0,0-4.34,11.69L95.07,253.7H160.2l-8.11-41.79c-.48-3.83-6.87-18.14-5.72-22.07C146.51,189.4,147.8,176.93,147.8,176.93Z"/><path class="cls-1" d="M107.34,252.49s.43-9.58,2.6-15.25"/><circle class="cls-2" cx="127.94" cy="115.44" r="42.43"/><path class="cls-4" d="M139.46,126.41a11.52,11.52,0,0,1-23,0"/><circle cx="148.99" cy="114.66" r="3.32"/><circle cx="106.88" cy="114.66" r="3.32"/><path class="cls-5" d="M168.73,103.74s-26.94-3.48-40.23-30.08c0,0-6.14,20.82-40.74,28.14"/><path class="cls-6" d="M130.29,192.37s6.8-4.08,6.8-1.36-.68,4.76,0,8.84-6.8-1.36-8.16-4.76"/><path class="cls-6" d="M126.93,192.37s-6.8-4.08-6.8-1.36.68,4.76,0,8.84,6.8-1.36,8.16-4.76"/><path class="cls-2" d="M95.75,202.47a139,139,0,0,0,4.48,24.24,5.31,5.31,0,0,0,5.54,4,5.13,5.13,0,0,0,4.39-6.48,130.47,130.47,0,0,1-4.31-23.39"/><path class="cls-7" d="M245.45,4.5V326H4.55V4.5H245.45m5-5H-.45V331H250.45V-.5Z"/></svg>