<?xml version="1.0" encoding="utf-8"?>
<!-- Generator: Adobe Illustrator 20.0.0, SVG Export Plug-In . SVG Version: 6.00 Build 0)  -->
<svg version="1.1" id="Layer_1" xmlns="http://www.w3.org/2000/svg" xmlns:xlink="http://www.w3.org/1999/xlink" x="0px" y="0px"
	 viewBox="0 0 182.3 91" style="enable-background:new 0 0 182.3 91;" xml:space="preserve">
<style type="text/css">
	.st0{fill:#EF6F70;}
	.st1{fill:#231F20;}
</style>
<title>insignificantword</title>
<g id="Layer_2">
	<g id="Layer_1-2">
		<path class="st0" d="M7.3,5.3h2.3V9H7.3v12.3H2.5V9H0.1V5.3h2.4V0h4.8V5.3z"/>
		<path class="st0" d="M11.9,0h4.8v6.8h0.1c0.9-1.4,2.5-2.1,4.1-2c1.6,0,3.2,0.6,4.4,1.8c1.4,1.6,1.5,3,1.5,5.8v8.9H22v-8.7
			c0-0.8,0-3.3-2.6-3.3s-2.7,2.4-2.7,3.2v8.9h-4.8V0z"/>
		<path class="st0" d="M45.7,16.3c-0.7,1.6-1.8,3.1-3.3,4.1c-1.3,0.9-2.9,1.4-4.5,1.4c-4.7,0-8.6-3.8-8.6-8.5s3.8-8.6,8.5-8.6
			c4.7,0,8.4,3.8,8.5,8.4c0,0.1,0,0.2,0,0.3c0,0.4,0,0.9-0.1,1.3h-12c0.3,1.8,1.9,3.1,3.8,3c1.2,0,2.3-0.5,2.9-1.5L45.7,16.3z
			 M41.5,11.6c-0.4-1.7-1.9-2.8-3.6-2.7c-1.7-0.1-3.2,1.1-3.6,2.7H41.5z"/>
		<path class="st0" d="M6.3,38.2H1.5v-3.6h4.8V38.2z M6.3,55.9H1.5v-16h4.8V55.9z"/>
		<path class="st0" d="M9.9,39.9h4.5v1.7h0.1c0.9-1.5,2.6-2.4,4.3-2.2c1.5,0,2.9,0.5,4.1,1.4c0.9,0.8,1.9,2,1.9,5.2v10H20v-8.7
			c0-1.1,0-3.3-2.5-3.3c-2.7,0-2.7,2.4-2.7,3.3v8.7H9.9V39.9z"/>
		<path class="st0" d="M35.2,44.4c0-0.3-0.1-1.2-1.5-1.2c-1,0-1.4,0.6-1.4,1.1c0,0.9,1.2,1.4,2.5,1.7c2.7,0.8,5.6,1.6,5.6,5
			s-3,5.5-6.5,5.5c-2.4,0-6.1-1.1-6.5-5.3h4.8c0.1,0.9,0.9,1.6,1.9,1.5c0.8,0,1.7-0.5,1.7-1.2c0-1.2-1.2-1.4-4.2-2.6
			c-2.1-0.7-3.8-2-3.8-4.2c0-3.2,2.9-5.3,6.2-5.3c2.1,0,5.7,0.8,6.1,5L35.2,44.4z"/>
		<path class="st0" d="M47.9,38.2h-4.8v-3.6h4.8L47.9,38.2z M47.9,55.9h-4.8v-16h4.8L47.9,55.9z"/>
		<path class="st0" d="M68.1,54c0,2.4-0.2,3.9-1,5.3c-1.2,2-4.1,3.7-8.1,3.7c-5.6,0-7.7-3.3-8-5.6h5.5c0.5,1,1.6,1.7,2.8,1.6
			c0.6,0,3.9-0.1,3.9-4.3v-0.5h-0.1c-0.9,1.5-2.6,2.4-4.4,2.3c-4.4,0-8-3.5-8.1-7.9c0-0.2,0-0.3,0-0.5c0-5.5,3.9-8.6,8.1-8.6
			c1.7-0.1,3.4,0.6,4.4,2h0.1v-1.5h4.8L68.1,54z M59.4,52c2.1,0.1,3.9-1.6,3.9-3.7c0-0.1,0-0.2,0-0.3c0.1-2.1-1.4-4-3.6-4.1
			c-0.1,0-0.2,0-0.3,0c-2.2,0.2-3.9,2.1-3.8,4.3C55.8,50.2,57.4,51.8,59.4,52L59.4,52z"/>
		<path class="st0" d="M71.8,39.9h4.5v1.7h0.1c0.9-1.5,2.6-2.4,4.3-2.2c1.5,0,2.9,0.5,4.1,1.4c0.9,0.8,1.8,2,1.8,5.2v10h-4.8v-8.7
			c0-1.1,0-3.3-2.5-3.3c-2.7,0-2.7,2.4-2.7,3.3v8.7h-4.8V39.9z"/>
		<path class="st0" d="M95,38.2h-4.8v-3.6H95V38.2z M95,55.9h-4.8v-16H95V55.9z"/>
		<path class="st0" d="M99.1,43.5h-1.8v-3.6h1.8v-0.8c0-4.5,3.8-4.9,6.1-4.9h0.7v3.6h-0.6c-0.8-0.1-1.4,0.5-1.5,1.3
			c0,0.1,0,0.2,0,0.2v0.6h2v3.6h-2v12.4h-4.8V43.5z"/>
		<path class="st0" d="M113.2,38.2h-4.8v-3.6h4.8V38.2z M113.2,55.9h-4.8v-16h4.8V55.9z"/>
		<path class="st0" d="M132.9,49.8c-1,4.6-5.5,7.6-10.1,6.7c-4.1-0.8-7-4.5-6.9-8.7c0-4.7,3.9-8.5,8.6-8.5c4,0,7.5,2.8,8.3,6.7H128
			c-0.6-1.4-1.9-2.3-3.5-2.2c-2.3-0.1-3.8,1.8-3.8,4.1c-0.2,2.1,1.3,3.9,3.4,4.1c0.2,0,0.3,0,0.5,0c1.5,0,2.8-0.8,3.5-2.1
			L132.9,49.8z"/>
		<path class="st0" d="M152.3,55.9h-4.8v-1.7h-0.1c-0.8,1.6-2.8,2.3-4.7,2.3c-5.1,0-8-4-8-8.6c0-5.2,3.8-8.5,8-8.5
			c1.8-0.1,3.6,0.7,4.7,2.2h0.1v-1.7h4.8V55.9z M143.5,52c2.3,0,4.1-1.7,4.2-4s-1.7-4.1-4-4.2c-2.3,0-4.1,1.7-4.2,4
			c0,0.1,0,0.1,0,0.2C139.5,50.2,141.3,52,143.5,52z"/>
		<path class="st0" d="M156,39.9h4.5v1.7h0.1c0.9-1.5,2.6-2.4,4.4-2.2c1.5,0,2.9,0.5,4.1,1.4c0.9,0.8,1.9,2,1.9,5.2v10H166v-8.7
			c0-1.1,0-3.3-2.5-3.3c-2.7,0-2.7,2.4-2.7,3.3v8.7H156V39.9z"/>
		<path class="st0" d="M180,39.9h2.3v3.6H180v12.4h-4.8V43.5h-2.4v-3.6h2.4v-5.3h4.8V39.9z"/>
		<path class="st0" d="M5,74.5l2.4,9.9h0.1l2.5-9.9h4l2.6,9.9h0.1l2.4-9.9h5l-4.9,16h-4.4l-2.7-10.3H12L9.3,90.5H4.9L0,74.5H5z"/>
		<path class="st0" d="M33.5,74c4.7-0.2,8.7,3.4,8.9,8.1S39,90.8,34.3,91c-0.3,0-0.6,0-0.8,0c-4.7,0.2-8.7-3.4-8.9-8.1
			s3.4-8.7,8.1-8.9C32.9,74,33.2,74,33.5,74z M33.5,86.5c2.2,0.1,4.1-1.6,4.2-3.8c0.1-2.2-1.6-4.1-3.8-4.2s-4.1,1.6-4.2,3.8
			c0,0.1,0,0.1,0,0.2C29.6,84.7,31.3,86.5,33.5,86.5C33.5,86.5,33.5,86.5,33.5,86.5L33.5,86.5z"/>
		<path class="st0" d="M44.9,74.5h4.5v1.7h0.1c0.4-0.8,1.2-2.2,4-2.2v4.8c-2.2,0.1-3.8,0.5-3.8,2.9v8.8h-4.8V74.5z"/>
		<path class="st0" d="M72.2,90.5h-4.6v-1.7h-0.1C67.1,89.4,66,91,62.8,91c-4.8,0-8-3.8-8-8.6c0-5.4,3.9-8.5,7.9-8.5
			c1.8-0.1,3.5,0.6,4.7,1.9v-6.7h4.8L72.2,90.5z M63.5,86.5c2.2,0.1,4-1.7,4.1-3.9c0-0.1,0-0.1,0-0.2c0-2.2-1.9-4-4.1-4
			c-2.2,0-4,1.9-4,4.1C59.6,84.7,61.3,86.5,63.5,86.5z"/>
		<path class="st1" d="M90,79.1c0,4.6-3.1,5.6-4.7,5.6H82v-4.1h1.7c1,0.1,1.9-0.5,2-1.5c0-0.1,0-0.2,0-0.2v-1.6H82v-7.8h8V79.1z
			 M101.4,79.1c0,4.6-3.1,5.6-4.7,5.6h-3.3v-4.1h1.7c1,0.1,1.8-0.6,1.9-1.6c0-0.1,0-0.1,0-0.2v-1.6h-3.6v-7.8h8V79.1z"/>
	</g>
</g>
</svg>
