<?xml version="1.0" encoding="utf-8"?>
<!-- Generator: Adobe Illustrator 18.1.1, SVG Export Plug-In . SVG Version: 6.00 Build 0)  -->
<svg version="1.1" id="Layer_1" xmlns="http://www.w3.org/2000/svg" xmlns:xlink="http://www.w3.org/1999/xlink" x="0px" y="0px"
	 viewBox="0 26.3 55 27.5" enable-background="new 0 26.3 55 27.5" xml:space="preserve">
<title>insignificantword</title>
<g id="Layer_2">
	<g id="Layer_1-2">
		<path fill="#231F20" d="M2.2,27.9h0.7V29H2.2v3.7H0.8V29H0v-1.1h0.7v-1.6h1.4V27.9z"/>
		<path fill="#231F20" d="M3.6,26.3H5v2.1h0c0.3-0.4,0.8-0.6,1.2-0.6c0.5,0,1,0.2,1.3,0.5c0.4,0.5,0.5,0.9,0.5,1.7v2.7H6.6v-2.6
			c0-0.2,0-1-0.8-1S5,29.8,5,30v2.7H3.6C3.6,32.7,3.6,26.3,3.6,26.3z"/>
		<path fill="#231F20" d="M13.8,31.2c-0.2,0.5-0.5,0.9-1,1.2c-0.4,0.3-0.9,0.4-1.4,0.4c-1.4,0-2.6-1.1-2.6-2.6
			c0-1.4,1.1-2.6,2.6-2.6s2.5,1.1,2.6,2.5c0,0,0,0.1,0,0.1c0,0.1,0,0.3,0,0.4h-3.6c0.1,0.5,0.6,0.9,1.1,0.9c0.4,0,0.7-0.2,0.9-0.5
			L13.8,31.2z M12.5,29.8c-0.1-0.5-0.6-0.8-1.1-0.8c-0.5,0-1,0.3-1.1,0.8H12.5z"/>
		<path fill="#231F20" d="M1.9,37.8H0.5v-1.1h1.4V37.8z M1.9,43.1H0.5v-4.8h1.4V43.1z"/>
		<path fill="#231F20" d="M3,38.3h1.4v0.5h0c0.3-0.5,0.8-0.7,1.3-0.7c0.5,0,0.9,0.2,1.2,0.4c0.3,0.2,0.6,0.6,0.6,1.6v3H6v-2.6
			c0-0.3,0-1-0.8-1c-0.8,0-0.8,0.7-0.8,1v2.6H3V38.3z"/>
		<path fill="#231F20" d="M10.6,39.7c0-0.1,0-0.4-0.5-0.4c-0.3,0-0.4,0.2-0.4,0.3c0,0.3,0.4,0.4,0.8,0.5c0.8,0.2,1.7,0.5,1.7,1.5
			c0,1-0.9,1.7-2,1.7c-0.7,0-1.8-0.3-2-1.6h1.4c0,0.3,0.3,0.5,0.6,0.5c0.2,0,0.5-0.2,0.5-0.4c0-0.4-0.4-0.4-1.3-0.8
			c-0.6-0.2-1.1-0.6-1.1-1.3c0-1,0.9-1.6,1.9-1.6c0.6,0,1.7,0.2,1.8,1.5H10.6z"/>
		<path fill="#231F20" d="M14.5,37.8H13v-1.1h1.4V37.8z M14.5,43.1H13v-4.8h1.4V43.1z"/>
		<path fill="#231F20" d="M20.5,42.6c0,0.7-0.1,1.2-0.3,1.6c-0.4,0.6-1.2,1.1-2.4,1.1c-1.7,0-2.3-1-2.4-1.7H17
			c0.2,0.3,0.5,0.5,0.8,0.5c0.2,0,1.2,0,1.2-1.3v-0.2h0c-0.3,0.5-0.8,0.7-1.3,0.7c-1.3,0-2.4-1.1-2.4-2.4c0-0.1,0-0.1,0-0.2
			c0-1.7,1.2-2.6,2.4-2.6c0.5,0,1,0.2,1.3,0.6h0v-0.5h1.4L20.5,42.6z M17.9,42c0.6,0,1.2-0.5,1.2-1.1c0,0,0-0.1,0-0.1
			c0-0.6-0.4-1.2-1.1-1.2c0,0-0.1,0-0.1,0c-0.7,0.1-1.2,0.6-1.1,1.3C16.8,41.4,17.3,41.9,17.9,42L17.9,42z"/>
		<path fill="#231F20" d="M21.7,38.3H23v0.5h0c0.3-0.5,0.8-0.7,1.3-0.7c0.5,0,0.9,0.2,1.2,0.4c0.3,0.2,0.5,0.6,0.5,1.6v3h-1.4v-2.6
			c0-0.3,0-1-0.8-1c-0.8,0-0.8,0.7-0.8,1v2.6h-1.4V38.3z"/>
		<path fill="#231F20" d="M28.7,37.8h-1.4v-1.1h1.4V37.8z M28.7,43.1h-1.4v-4.8h1.4V43.1z"/>
		<path fill="#231F20" d="M29.9,39.4h-0.5v-1.1h0.5v-0.2c0-1.4,1.1-1.5,1.8-1.5H32v1.1h-0.2c-0.2,0-0.4,0.2-0.5,0.4c0,0,0,0.1,0,0.1
			v0.2h0.6v1.1h-0.6v3.7h-1.4L29.9,39.4L29.9,39.4z"/>
		<path fill="#231F20" d="M34.2,37.8h-1.4v-1.1h1.4V37.8z M34.2,43.1h-1.4v-4.8h1.4V43.1z"/>
		<path fill="#231F20" d="M40.1,41.3c-0.3,1.4-1.7,2.3-3,2c-1.2-0.2-2.1-1.4-2.1-2.6c0-1.4,1.2-2.6,2.6-2.6c1.2,0,2.3,0.8,2.5,2
			h-1.4c-0.2-0.4-0.6-0.7-1.1-0.7c-0.7,0-1.1,0.5-1.1,1.2c-0.1,0.6,0.4,1.2,1,1.2c0.1,0,0.1,0,0.2,0c0.5,0,0.8-0.2,1.1-0.6
			L40.1,41.3z"/>
		<path fill="#231F20" d="M45.9,43.1h-1.4v-0.5h0c-0.2,0.5-0.8,0.7-1.4,0.7c-1.5,0-2.4-1.2-2.4-2.6c0-1.6,1.1-2.6,2.4-2.6
			c0.5,0,1.1,0.2,1.4,0.7h0v-0.5h1.4V43.1z M43.3,42c0.7,0,1.2-0.5,1.3-1.2c0-0.7-0.5-1.2-1.2-1.3c-0.7,0-1.2,0.5-1.3,1.2
			c0,0,0,0,0,0.1C42.1,41.4,42.6,42,43.3,42z"/>
		<path fill="#231F20" d="M47.1,38.3h1.4v0.5h0c0.3-0.5,0.8-0.7,1.3-0.7c0.5,0,0.9,0.2,1.2,0.4c0.3,0.2,0.6,0.6,0.6,1.6v3h-1.5v-2.6
			c0-0.3,0-1-0.8-1c-0.8,0-0.8,0.7-0.8,1v2.6h-1.4V38.3z"/>
		<path fill="#231F20" d="M54.3,38.3H55v1.1h-0.7v3.7h-1.4v-3.7h-0.7v-1.1h0.7v-1.6h1.4V38.3z"/>
		<path fill="#231F20" d="M1.5,48.7l0.7,3h0l0.8-3h1.2l0.8,3h0l0.7-3h1.5l-1.5,4.8H4.5l-0.8-3.1h0l-0.8,3.1H1.5L0,48.7H1.5z"/>
		<path fill="#231F20" d="M10.1,48.6c1.4-0.1,2.6,1,2.7,2.4c0.1,1.4-1,2.6-2.4,2.7c-0.1,0-0.2,0-0.2,0c-1.4,0.1-2.6-1-2.7-2.4
			c-0.1-1.4,1-2.6,2.4-2.7C9.9,48.6,10,48.6,10.1,48.6z M10.1,52.4c0.7,0,1.2-0.5,1.3-1.1c0-0.7-0.5-1.2-1.1-1.3
			c-0.7,0-1.2,0.5-1.3,1.1c0,0,0,0,0,0.1C8.9,51.8,9.4,52.4,10.1,52.4L10.1,52.4L10.1,52.4z"/>
		<path fill="#231F20" d="M13.5,48.7h1.4v0.5h0c0.1-0.2,0.4-0.7,1.2-0.7V50c-0.7,0-1.1,0.2-1.1,0.9v2.7h-1.4V48.7z"/>
		<path fill="#231F20" d="M21.8,53.6h-1.4v-0.5h0c-0.1,0.2-0.5,0.7-1.4,0.7c-1.4,0-2.4-1.1-2.4-2.6c0-1.6,1.2-2.6,2.4-2.6
			c0.5,0,1.1,0.2,1.4,0.6v-2h1.4L21.8,53.6z M19.2,52.4c0.7,0,1.2-0.5,1.2-1.2c0,0,0,0,0-0.1c0-0.7-0.6-1.2-1.2-1.2
			c-0.7,0-1.2,0.6-1.2,1.2C18,51.8,18.5,52.4,19.2,52.4z"/>
		<path fill="#231F20" d="M27.2,50.1c0,1.4-0.9,1.7-1.4,1.7h-1v-1.2h0.5c0.3,0,0.6-0.2,0.6-0.5c0,0,0-0.1,0-0.1v-0.5h-1.1v-2.4h2.4
			V50.1z M30.6,50.1c0,1.4-0.9,1.7-1.4,1.7h-1v-1.2h0.5c0.3,0,0.5-0.2,0.6-0.5c0,0,0,0,0-0.1v-0.5h-1.1v-2.4h2.4V50.1z"/>
	</g>
</g>
</svg>
