<?xml version="1.0" encoding="utf-8"?>
<!-- Generator: Adobe Illustrator 18.1.1, SVG Export Plug-In . SVG Version: 6.00 Build 0)  -->
<svg version="1.1" id="Layer_1" xmlns="http://www.w3.org/2000/svg" xmlns:xlink="http://www.w3.org/1999/xlink" x="0px" y="0px"
	 viewBox="0 0 61 21.9" enable-background="new 0 0 61 21.9" xml:space="preserve">
<g>
	<defs>
		<rect id="SVGID_5_" x="-7.4" y="8.5" width="66.1" height="13.6"/>
	</defs>
	<clipPath id="SVGID_2_">
		<use xlink:href="#SVGID_5_"  overflow="visible"/>
	</clipPath>
	<path clip-path="url(#SVGID_2_)" fill="none" stroke="#FFFFFF" stroke-width="0.5795" stroke-miterlimit="10" d="M51.7,10.6
		c0,3.7-2.4,4.8-3.7,4.8H-0.1"/>
	<path clip-path="url(#SVGID_2_)" fill="none" stroke="#FFFFFF" stroke-width="0.5795" stroke-miterlimit="10" d="M55.1,10
		c0,6.5-4.5,8.6-6.7,8.6h-52"/>
	<path clip-path="url(#SVGID_2_)" fill="none" stroke="#FFFFFF" stroke-width="0.5795" stroke-miterlimit="10" d="M58.5,8.5
		c0,10.8-7,13.3-10.7,13.3H-7.4"/>
</g>
<g>
	<path fill="#FFFFFF" d="M51.3,7.7c0-0.7,0.2-1.2,1-2c0.5-0.5,0.9-0.9,0.9-1.5c0-0.8-0.6-1.4-1.4-1.4c-0.7,0-1.3,0.4-1.4,1.2
		c0,0.1,0,0.2,0,0.3h-0.8c0-0.1,0-0.2,0-0.2c0.1-1.4,1.3-2,2.3-2C53.1,2.1,54,3,54,4.2c0,0.8-0.6,1.4-1.2,1.9
		c-0.7,0.7-0.8,1.2-0.8,1.6H51.3z M52.1,9.6h-0.8V8.5h0.8V9.6z"/>
</g>
<g>
	<path fill="#FFFFFF" d="M58.2,5.6c0-0.7,0.2-1.2,1-2c0.5-0.5,0.9-0.9,0.9-1.5c0-0.8-0.6-1.4-1.4-1.4c-0.7,0-1.3,0.4-1.4,1.2
		c0,0.1,0,0.2,0,0.3h-0.8c0-0.1,0-0.2,0-0.2c0.1-1.4,1.3-2,2.3-2c1.3,0,2.2,0.9,2.2,2.1c0,0.8-0.6,1.4-1.2,1.9C59,4.7,59,5.2,59,5.6
		H58.2z M59,7.5h-0.8V6.4H59V7.5z"/>
</g>
</svg>
