<?xml version="1.0" encoding="utf-8"?>
<!-- Generator: Adobe Illustrator 18.1.1, SVG Export Plug-In . SVG Version: 6.00 Build 0)  -->
<svg version="1.1" id="Layer_1" xmlns="http://www.w3.org/2000/svg" xmlns:xlink="http://www.w3.org/1999/xlink" x="0px" y="0px"
	 viewBox="1.8 26 51.4 20" enable-background="new 1.8 26 51.4 20" xml:space="preserve">
<title>Asset 1</title>
<g id="Layer_2">
	<g id="Layer_3">
		<path fill="#FFFFFF" d="M27.8,35.3H27v0.9h0.8V35.3z M27.8,34.8c0-0.5,0.3-0.9,0.6-1.2c0.4-0.3,0.7-0.8,0.7-1.3
			c0-0.9-0.8-1.7-1.7-1.7c-0.9,0-1.7,0.8-1.7,1.7h0.8c0-0.2,0.1-0.3,0.2-0.5c0.2-0.3,0.4-0.4,0.7-0.4c0.5,0,0.9,0.4,0.9,0.9
			c0,0,0,0,0,0c0,0.3-0.1,0.4-0.5,0.9c-0.5,0.4-0.8,1-0.8,1.7L27.8,34.8z"/>
		
			<rect x="29.1" y="28.9" transform="matrix(-0.668 0.7442 -0.7442 -0.668 71.5527 26.627)" fill="#FFFFFF" width="1.5" height="0.8"/>
		
			<rect x="24.9" y="28.5" transform="matrix(-0.7443 0.6678 -0.6678 -0.7443 63.6487 34.183)" fill="#FFFFFF" width="0.8" height="1.5"/>
		<rect x="27.2" y="27.5" fill="#FFFFFF" width="0.8" height="1.9"/>
		<path fill="none" stroke="#FFFFFF" stroke-width="0.5" stroke-miterlimit="10" d="M10,45.4c4.2,0,7.5-3.4,7.5-7.5
			c0-4.2-3.4-7.5-7.5-7.5c-4.2,0-7.5,3.4-7.5,7.5C2.5,42,5.9,45.4,10,45.4C10,45.4,10,45.4,10,45.4"/>
		<path fill="none" stroke="#FFFFFF" stroke-width="0.5" stroke-miterlimit="10" d="M45,45.4c4.2,0,7.5-3.4,7.5-7.5
			c0-4.2-3.4-7.5-7.5-7.5c-4.2,0-7.5,3.4-7.5,7.5C37.4,42,40.8,45.4,45,45.4C45,45.4,45,45.4,45,45.4"/>
		<path fill="#FFFFFF" d="M47.5,38.4c-0.9,1.3-2.6,1.7-4,0.8c-0.3-0.2-0.6-0.5-0.8-0.8h-1.2c0.7,2,2.9,3.1,4.9,2.4
			c1.1-0.4,2-1.3,2.4-2.4H47.5z M47.3,35.6h-1.2v1.2h1.2L47.3,35.6z M44.6,35.6h-1.2v1.2h1.2L44.6,35.6z"/>
		<path fill="#FFFFFF" d="M7.5,40.2C8,39.4,8.9,38.9,9.9,39c1,0,1.9,0.5,2.4,1.3h1.2c-0.7-2-2.9-3.1-4.9-2.4c-1.1,0.4-2,1.3-2.4,2.4
			H7.5z M12.1,35.2h-1.2v1.2h1.2L12.1,35.2z M9.4,35.2H8.2v1.2h1.2L9.4,35.2z"/>
	</g>
</g>
<g>
	<g>
		<line fill="none" stroke="#FFFFFF" stroke-width="0.5" stroke-miterlimit="10" x1="21" y1="39.9" x2="33.8" y2="39.9"/>
		<g>
			<polygon fill="#FFFFFF" points="32.2,41.9 31.8,41.5 33.6,39.9 31.8,38.2 32.2,37.8 34.4,39.9 			"/>
		</g>
	</g>
</g>
</svg>
