<?xml version="1.0" encoding="utf-8"?>
<!-- Generator: Adobe Illustrator 18.1.1, SVG Export Plug-In . SVG Version: 6.00 Build 0)  -->
<svg version="1.1" id="Layer_1" xmlns="http://www.w3.org/2000/svg" xmlns:xlink="http://www.w3.org/1999/xlink" x="0px" y="0px"
	 viewBox="0 19.4 55 41.2" enable-background="new 0 19.4 55 41.2" xml:space="preserve">
<title>Asset 2</title>
<g id="Layer_2">
	<g id="Layer_3">
		<g>
			<path fill="#FFFFFF" d="M43.1,19.9c3,0,5.4,2.5,5.4,5.5l0,1.4c0,3-2.5,5.4-5.4,5.4H25.3h-0.2l-0.1,0.2l-2.1,2.5v-2.1v-0.5l-0.5,0
				c-3,0-5.5-2.5-5.5-5.5l0-1.4c0-3,2.5-5.4,5.5-5.4H43.1 M43.1,19.4H22.3c-3.3,0-5.9,2.7-6,5.9v1.4c0,3.3,2.7,5.9,6,6v2.8
				c0,0.1,0,0.1,0.1,0.2c0.1,0,0.1,0.1,0.2,0.1c0.1,0,0.1,0,0.2-0.1l2.6-2.9h17.8c3.3,0,5.9-2.7,5.9-5.9v-1.4
				C49,22.1,46.3,19.4,43.1,19.4L43.1,19.4z"/>
		</g>
		<g>
			<path fill="#FFFFFF" d="M40.5,35.4c1.7,0,3,1.4,3.1,3.1l0,0.8c0,1.7-1.4,3-3.1,3.1H29.9h-0.2l-0.1,0.2l-0.9,1.1v-0.7v-0.5l-0.5,0
				c-1.7,0-3-1.4-3.1-3.1l0-0.8c0-1.7,1.4-3,3.1-3.1H40.5 M40.5,34.9H28.1c-2,0-3.5,1.6-3.6,3.6v0.8c0,2,1.6,3.5,3.6,3.6v1.7
				c0,0,0,0.1,0.1,0.1c0,0,0.1,0,0.1,0c0,0,0.1,0,0.1-0.1l1.5-1.8h10.6c2,0,3.5-1.6,3.6-3.6v-0.8C44,36.5,42.4,35,40.5,34.9
				L40.5,34.9z"/>
		</g>
		<g>
			<path fill="#FFFFFF" d="M52.6,46.5c1,0,1.9,0.9,1.9,1.9l0,0.6c0,1-0.9,1.9-1.9,1.9H32.1h-0.2L31.7,51l-0.3,0.4v-0.1v-0.5l-0.5,0
				c-1,0-1.9-0.9-1.9-1.9l0-0.6c0-1,0.9-1.9,1.9-1.9H52.6 M52.6,46H30.9c-1.3,0-2.4,1.1-2.4,2.4V49c0,1.3,1.1,2.4,2.4,2.4v1.1
				c0,0,0,0.1,0,0.1c0,0,0,0,0.1,0c0,0,0.1,0,0.1,0l1-1.2h20.5c1.3,0,2.4-1.1,2.4-2.4v-0.6C55,47.1,53.9,46.1,52.6,46L52.6,46z"/>
		</g>
		<g>
			<path fill="#FFFFFF" d="M18,34.9l0,0.5c1.1,0,2,0.9,2,2V38c0,1.1-0.9,2-2,2l-0.5,0v0.5l0,0.1l-0.4-0.4L17,40h-0.2H9.4
				c-1.1,0-2-0.9-2-2l0-0.6c0-1.1,0.9-1.9,1.9-2l8.6,0L18,34.9 M18,34.9C18,34.9,18,34.9,18,34.9C18,34.9,18,34.9,18,34.9l-8.7,0
				C8,35,7,36.1,7,37.4V38c0,1.4,1.1,2.5,2.5,2.5c0,0,0,0,0,0h7.4l1.1,1.2c0,0,0.1,0,0.1,0c0,0,0,0,0.1,0c0,0,0-0.1,0-0.1v-1.1
				c1.4,0,2.5-1.1,2.5-2.5v-0.6C20.5,36,19.4,34.9,18,34.9L18,34.9z"/>
		</g>
		<g>
			<path fill="#FFFFFF" d="M35.6,54.3c1.1,0,2,0.9,2,2l0,0.6c0,1.1-0.9,2-2,2h-7.4H28L27.8,59l-0.4,0.4v-0.1v-0.5l-0.5,0
				c-0.5,0-1-0.2-1.4-0.6c-0.4-0.4-0.6-0.9-0.6-1.4v-0.6c0-1.1,0.9-2,2-2H35.6 M35.6,53.8H27c-1.4,0-2.5,1.1-2.5,2.5v0.6
				c0,0,0,0,0,0c0,1.4,1.1,2.5,2.5,2.5v1.1c0,0,0,0.1,0,0.1c0,0,0,0,0.1,0c0,0,0.1,0,0.1,0l1.1-1.2h7.4c0,0,0,0,0,0c0,0,0,0,0,0
				c1.4,0,2.5-1.1,2.4-2.5v-0.6C38.1,54.9,37,53.8,35.6,53.8L35.6,53.8z"/>
		</g>
		<g>
			<path fill="#FFFFFF" d="M21.4,43.2l0,0.5c1.1,0,2.2,0.5,3,1.3c0.8,0.8,1.2,1.9,1.2,3v1.1c0,2.3-1.9,4.3-4.3,4.3l-0.5,0v0.5l0,1.4
				l-1.5-1.8l-0.1-0.2H19H4.8c-2.3,0-4.3-1.9-4.3-4.3V48c0-2.4,1.9-4.3,4.3-4.3h16.6V43.2 M21.4,43.2H4.8C2.1,43.2,0,45.3,0,48
				c0,0,0,0,0,0v1.1c0,2.6,2.1,4.8,4.8,4.8H19l2,2.4c0,0.1,0.1,0.1,0.2,0.1c0,0,0.1,0,0.1,0c0.1,0,0.1-0.1,0.1-0.2v-2.2
				c2.6,0,4.8-2.1,4.8-4.8V48C26.2,45.3,24,43.2,21.4,43.2C21.4,43.2,21.4,43.2,21.4,43.2L21.4,43.2z"/>
		</g>
		<g>
			<path fill="#FFFFFF" d="M28.2,25.7c0.2,0,0.3,0.1,0.3,0.3s-0.1,0.3-0.3,0.3s-0.3-0.1-0.3-0.3S28,25.7,28.2,25.7 M28.2,25.2
				c-0.4,0-0.8,0.4-0.8,0.8s0.4,0.8,0.8,0.8S29,26.5,29,26S28.6,25.2,28.2,25.2L28.2,25.2z"/>
		</g>
		<g>
			<path fill="#FFFFFF" d="M32.2,25.7c0.2,0,0.3,0.1,0.3,0.3s-0.1,0.3-0.3,0.3s-0.3-0.1-0.3-0.3S32.1,25.7,32.2,25.7 M32.2,25.2
				c-0.4,0-0.8,0.4-0.8,0.8s0.4,0.8,0.8,0.8s0.8-0.4,0.8-0.8S32.7,25.2,32.2,25.2L32.2,25.2z"/>
		</g>
		<g>
			<path fill="#FFFFFF" d="M36.3,25.7c0.2,0,0.3,0.1,0.3,0.3s-0.1,0.3-0.3,0.3S36,26.2,36,26S36.1,25.7,36.3,25.7 M36.3,25.2
				c-0.4,0-0.8,0.4-0.8,0.8s0.4,0.8,0.8,0.8s0.8-0.4,0.8-0.8S36.8,25.2,36.3,25.2L36.3,25.2z"/>
		</g>
		<g>
			<path fill="#FFFFFF" d="M9,48.4c0.2,0,0.3,0.1,0.3,0.3S9.2,49.1,9,49.1s-0.3-0.1-0.3-0.3S8.8,48.4,9,48.4 M9,47.9
				c-0.4,0-0.8,0.4-0.8,0.8s0.4,0.8,0.8,0.8s0.8-0.4,0.8-0.8S9.5,47.9,9,47.9L9,47.9z"/>
		</g>
		<g>
			<path fill="#FFFFFF" d="M13.1,48.4c0.2,0,0.3,0.1,0.3,0.3s-0.1,0.3-0.3,0.3s-0.3-0.1-0.3-0.3S12.9,48.4,13.1,48.4 M13.1,47.9
				c-0.4,0-0.8,0.4-0.8,0.8s0.4,0.8,0.8,0.8s0.8-0.4,0.8-0.8S13.5,47.9,13.1,47.9L13.1,47.9z"/>
		</g>
		<g>
			<path fill="#FFFFFF" d="M17.2,48.4c0.2,0,0.3,0.1,0.3,0.3s-0.1,0.3-0.3,0.3s-0.3-0.1-0.3-0.3S17,48.4,17.2,48.4 M17.2,47.9
				c-0.4,0-0.8,0.4-0.8,0.8s0.4,0.8,0.8,0.8s0.8-0.4,0.8-0.8S17.6,47.9,17.2,47.9L17.2,47.9z"/>
		</g>
	</g>
</g>
</svg>
