<?xml version="1.0" encoding="utf-8"?>
<!-- Generator: Adobe Illustrator 18.1.1, SVG Export Plug-In . SVG Version: 6.00 Build 0)  -->
<svg version="1.1" id="Layer_1" xmlns="http://www.w3.org/2000/svg" xmlns:xlink="http://www.w3.org/1999/xlink" x="0px" y="0px"
	 viewBox="0 20.8 55 37.6" enable-background="new 0 20.8 55 37.6" xml:space="preserve">
<title>Asset 3</title>
<g id="Layer_2">
	<g id="Layer_3">
		<rect x="32" y="31.5" fill="none" stroke="#FFFFFF" stroke-width="0.5" stroke-miterlimit="10" width="22.6" height="27"/>
		<path fill="none" stroke="#FFFFFF" stroke-width="0.5" stroke-miterlimit="10" d="M24.6,52.1L24.6,52.1c0-3.1-2.5-5.6-5.6-5.6H2.5
			c-1.2,0-2.1-1-2.1-2.1V23.7c0-1.2,1-2.1,2.1-2.1h16.4c3.1,0,5.6,2.5,5.6,5.6l0,0L24.6,52.1z"/>
		<path fill="none" stroke="#FFFFFF" stroke-width="0.5" stroke-miterlimit="10" d="M24.8,52.1L24.8,52.1c0-3.1,2.5-5.6,5.6-5.6l0,0
			h16.4c1.2,0,2.1-1,2.1-2.1V23.7c0-1.2-1-2.1-2.1-2.1H30.5c-3.1,0-5.6,2.5-5.6,5.6l0,0L24.8,52.1z"/>
		<line fill="none" stroke="#FFFFFF" stroke-width="0.5" stroke-miterlimit="10" x1="30.8" y1="26.1" x2="46" y2="26.1"/>
		<line fill="none" stroke="#FFFFFF" stroke-width="0.5" stroke-miterlimit="10" x1="30.8" y1="28.8" x2="46" y2="28.8"/>
		<line fill="none" stroke="#FFFFFF" stroke-width="0.5" stroke-miterlimit="10" x1="30.8" y1="31.5" x2="46" y2="31.5"/>
		<line fill="none" stroke="#FFFFFF" stroke-width="0.5" stroke-miterlimit="10" x1="30.8" y1="34.2" x2="46" y2="34.2"/>
		<line fill="none" stroke="#FFFFFF" stroke-width="0.5" stroke-miterlimit="10" x1="30.8" y1="36.9" x2="39.7" y2="36.9"/>
	</g>
</g>
</svg>
