<?xml version="1.0" encoding="utf-8"?>
<!-- Generator: Adobe Illustrator 20.0.0, SVG Export Plug-In . SVG Version: 6.00 Build 0)  -->
<svg version="1.1" id="Layer_1" xmlns="http://www.w3.org/2000/svg" xmlns:xlink="http://www.w3.org/1999/xlink" x="0px" y="0px"
	 viewBox="0 0 79.6 47.9" style="enable-background:new 0 0 79.6 47.9;" xml:space="preserve">
<style type="text/css">
	.st0{enable-background:new    ;}
	.st1{fill:#231F20;}
</style>
<title>parentingtips</title>
<g id="Layer_2">
	<g id="Layer_1-2">
		<g class="st0">
			<path class="st1" d="M9.3,12h2.2v0.9l0,0l0,0c0.5-0.6,1.2-1.1,2.4-1.1c2.8,0,3.8,2.4,3.8,4.2c0,2.2-1.6,4.1-3.8,4.1
				c-1.4,0-2.1-0.7-2.3-1v3.3H9.3V12z M15.4,15.9c0-0.9-0.7-2-1.9-2c-1.3,0-1.9,1.1-1.9,2c0,1,0.7,2,1.9,2S15.4,16.8,15.4,15.9z"/>
		</g>
		<g class="st0">
			<path class="st1" d="M26.9,19.7h-2.3v-0.8l0,0c-0.4,0.8-1.4,1.1-2.3,1.1c-2.5,0-3.9-1.9-3.9-4.2c0-2.5,1.8-4.1,3.9-4.1
				c1.3,0,2,0.6,2.3,1.1l0,0V12h2.3V19.7z M22.7,17.8c1.5,0,1.9-1.2,1.9-2c0-0.9-0.6-2-2-2c-1.3,0-1.9,1.1-1.9,2
				C20.7,16.6,21.3,17.8,22.7,17.8z"/>
		</g>
		<g class="st0">
			<path class="st1" d="M28.2,12h2.2v0.8l0,0c0.2-0.4,0.6-1.1,1.9-1.1V14c-1.1,0-1.8,0.3-1.8,1.4v4.3h-2.3
				C28.2,19.7,28.2,12,28.2,12z"/>
			<path class="st1" d="M40.7,17.3c-0.4,0.9-0.9,1.5-1.6,2c-0.6,0.5-1.4,0.7-2.2,0.7c-2.2,0-4.1-1.8-4.1-4.1c0-2.2,1.7-4.2,4.1-4.2
				c2.4,0,4.1,1.9,4.1,4.2c0,0.3,0,0.4-0.1,0.6h-5.8c0.1,0.9,0.9,1.5,1.8,1.5c0.7,0,1.1-0.3,1.4-0.7H40.7z M38.7,15
				c-0.1-0.5-0.6-1.3-1.8-1.3s-1.6,0.8-1.7,1.3H38.7z"/>
		</g>
		<g class="st0">
			<path class="st1" d="M41.8,12H44v0.8l0,0c0.2-0.4,0.7-1.1,2.1-1.1c0.7,0,1.6,0.3,2,0.7s0.9,1,0.9,2.5v4.9h-2.3v-4.2
				c0-0.5,0-1.6-1.2-1.6c-1.3,0-1.3,1.1-1.3,1.6v4.2h-2.3V12H41.8z"/>
		</g>
		<g class="st0">
			<path class="st1" d="M53,12h1.1v1.8H53v6h-2.3v-6h-1.1V12h1.1V9.4H53V12z"/>
		</g>
		<rect x="55.2" y="9.4" class="st1" width="2.3" height="1.7"/>
		<rect x="55.2" y="12" class="st1" width="2.3" height="7.7"/>
		<g class="st0">
			<path class="st1" d="M59.1,12h2.2v0.8l0,0c0.2-0.4,0.7-1.1,2.1-1.1c0.7,0,1.6,0.3,2,0.7s0.9,1,0.9,2.5v4.9H64v-4.2
				c0-0.5,0-1.6-1.2-1.6c-1.3,0-1.3,1.1-1.3,1.6v4.2h-2.3V12H59.1z"/>
		</g>
		<g class="st0">
			<path class="st1" d="M75.6,18.8c0,1.2-0.1,1.9-0.5,2.6c-0.6,1-2,1.8-3.9,1.8c-2.7,0-3.7-1.6-3.9-2.7H70c0.3,0.8,1.2,0.8,1.4,0.8
				c0.3,0,1.9,0,1.9-2.1V19l0,0c-0.3,0.3-0.9,1-2.2,1c-2.1,0-3.9-1.6-3.9-4.1c0-2.7,1.9-4.2,3.9-4.2c0.9,0,1.7,0.3,2.1,1l0,0V12h2.4
				L75.6,18.8L75.6,18.8z M71.5,17.8c1.1,0,1.9-0.8,1.9-1.9c0-1.2-0.9-2-1.9-2s-1.9,0.8-1.9,1.9C69.7,17.1,70.5,17.8,71.5,17.8z"/>
		</g>
		<g class="st0">
			<path class="st1" d="M12,28.8h1.1v1.8H12v6H9.7v-6H8.6v-1.8h1.1v-2.6H12V28.8z"/>
		</g>
		<g class="st0">
			<path class="st1" d="M16.6,28h-2.3v-1.8h2.3V28z M16.6,36.6h-2.3v-7.8h2.3V36.6z"/>
		</g>
		<g class="st0">
			<path class="st1" d="M18.1,28.9h2.2v0.9l0,0l0,0c0.5-0.6,1.2-1.1,2.4-1.1c2.8,0,3.8,2.4,3.8,4.2c0,2.2-1.6,4.1-3.8,4.1
				c-1.4,0-2.1-0.7-2.3-1v3.3h-2.3C18.1,39.3,18.1,28.9,18.1,28.9z M24.2,32.8c0-0.9-0.7-2-1.9-2c-1.3,0-1.9,1.1-1.9,2
				c0,1,0.7,2,1.9,2S24.2,33.7,24.2,32.8z"/>
		</g>
		<g class="st0">
			<path class="st1" d="M31.3,31c0-0.2,0-0.6-0.7-0.6c-0.5,0-0.7,0.3-0.7,0.5c0,0.4,0.6,0.7,1.2,0.8c1.3,0.4,2.7,0.8,2.7,2.4
				c0,1.6-1.4,2.6-3.2,2.6c-1.2,0-3-0.5-3.2-2.6h2.3c0.1,0.7,0.8,0.7,0.9,0.7c0.4,0,0.8-0.2,0.8-0.6c0-0.6-0.6-0.7-2.1-1.2
				c-1-0.3-1.8-1-1.8-2c0-1.5,1.4-2.6,3-2.6c1,0,2.8,0.4,3,2.5L31.3,31L31.3,31z"/>
		</g>
		<polygon class="st1" points="2.6,12.6 0,12.6 0,0 12.5,0 12.5,2.6 2.6,2.6 		"/>
		<path class="st1" d="M31.6,47.9l-0.4-2.6c2.5-0.3,8.6-2.1,9.8-10.6l2.6,0.4C42.1,45.7,34,47.6,31.6,47.9z"/>
	</g>
</g>
</svg>
