<?xml version="1.0" encoding="utf-8"?>
<!-- Generator: Adobe Illustrator 18.1.1, SVG Export Plug-In . SVG Version: 6.00 Build 0)  -->
<svg version="1.1" id="Layer_1" xmlns="http://www.w3.org/2000/svg" xmlns:xlink="http://www.w3.org/1999/xlink" x="0px" y="0px"
	 viewBox="0 0 20 20" enable-background="new 0 0 20 20" xml:space="preserve">
<g>
	<path d="M9.3,12.6l0-6.2h0.8v7.4H9.3L4.9,7.6l0,6.2H4.1V6.4h0.8L9.3,12.6z"/>
	<path d="M12.5,11.8c0.1,1.2,1,1.5,1.5,1.5c0.8,0,1.5-0.6,1.5-1.4c0-1-0.9-1.3-1.7-1.5c-0.6-0.2-1.9-0.6-1.9-2c0-1.3,1.1-2,2.2-2
		c0.9,0,2,0.5,2.1,1.9h-0.8C15.2,7.7,15,7,14,7c-0.7,0-1.3,0.5-1.3,1.3c0,0.9,0.7,1.1,1.8,1.5c0.7,0.3,1.8,0.7,1.8,2
		c0,1.2-0.9,2.2-2.3,2.2c-1.2,0-2.3-0.8-2.3-2.2H12.5z"/>
</g>
</svg>
