<?xml version="1.0" encoding="utf-8"?>
<!-- Generator: Adobe Illustrator 18.1.1, SVG Export Plug-In . SVG Version: 6.00 Build 0)  -->
<svg version="1.1" id="Layer_1" xmlns="http://www.w3.org/2000/svg" xmlns:xlink="http://www.w3.org/1999/xlink" x="0px" y="0px"
	 viewBox="0 0 50.8 11.6" enable-background="new 0 0 50.8 11.6" xml:space="preserve">
<g>
	<defs>
		<rect id="SVGID_7_" y="0" width="50.8" height="11.6"/>
	</defs>
	<clipPath id="SVGID_2_">
		<use xlink:href="#SVGID_7_"  overflow="visible"/>
	</clipPath>
	<path clip-path="url(#SVGID_2_)" fill="none" stroke="#FFFFFF" stroke-width="0.4212" d="M50.5,0.2h-5.2v5.6h2.3V7
		c0,0.4-0.2,1.3-1.2,1.3h-1.1v2.9h2.1c1,0,3-0.7,3-4V0.2z M43.2,0.2H38v5.6h2.3V7c0,0.4-0.2,1.3-1.3,1.3H38v2.9h2.1c1,0,3-0.7,3-4
		V0.2z M0.2,11.4h5.2V5.7H3V4.6c0-0.3,0.1-1.2,1.3-1.2h1.1v-3H3.2c-1,0-3,0.8-3,4V11.4z M7.5,11.4h5.2V5.7h-2.3V4.6
		c0-0.3,0.2-1.2,1.3-1.2h1.1v-3h-2.1c-1,0-3,0.8-3,4V11.4z"/>
</g>
</svg>
